<?xml version="1.0" encoding="utf-8"?>
<!-- Generator: Adobe Illustrator 21.1.0, SVG Export Plug-In . SVG Version: 6.00 Build 0)  -->
<svg version="1.1" id="Layer_1" xmlns="http://www.w3.org/2000/svg" xmlns:xlink="http://www.w3.org/1999/xlink" x="0px" y="0px"
	 viewBox="0 0 512 512" style="enable-background:new 0 0 512 512;" xml:space="preserve">
<style type="text/css">
	.st0{fill:#54B1F7;}
</style>
<path class="st0" d="M458.5,63.6c-5.7,0-11.2,0.9-16.5,2.6c-12.1-15-30.3-23.8-49.9-23.8c-6.6,0-13,1-19,2.9
	C341,16.1,299.6,0,256.1,0c0,0,0,0-0.1,0c0,0,0,0-0.1,0c0,0,0,0,0,0c0,0,0,0,0,0c-46.4,0-90.1,18.1-123,51
	C100,83.9,81.8,127.6,81.8,174.1c0,13.6,1.6,27,4.7,40c-23.1,3.4-42.8,19.3-50.9,41.3C15.3,259.1,0,276.9,0,298.1
	c0,24,19.5,43.5,43.5,43.5h43.1c4.2,0,7.6-3.4,7.6-7.6c0-4.2-3.4-7.6-7.6-7.6H43.5c-15.6,0-28.3-12.7-28.3-28.3
	c0-15,11.7-27.3,26.6-28.2c3.2-0.2,6-2.4,6.9-5.6c5.4-19.4,22.3-33.4,42-35.5c11.8,35.5,34.9,66.8,66.5,88.6c3.7,2.5,7,5.4,10.1,8.6
	c-1.7,0.2-3.4,0.3-5.1,0.3H117c-4.2,0-7.6,3.4-7.6,7.6s3.4,7.6,7.6,7.6h45.1c5.2,0,10.2-0.7,15.1-2.2c5.6,9.8,8.6,21.1,8.6,32.8
	v65.3c0,0,0,32.5,0,32.5c0,23.2,18.9,42.1,42.1,42.1h56.9c23.2,0,42.1-18.9,42.1-42.1v-97.8v-0.6c0-21.7,10.6-42.1,28.4-54.5
	c17.3-12,32.1-26.9,44-44.1c2.4-3.5,1.5-8.2-1.9-10.6c-3.5-2.4-8.2-1.5-10.6,1.9c-10.9,15.8-24.4,29.4-40.2,40.3
	c-19.9,13.9-32.5,35.9-34.6,60h-27.2l-2.3-0.1c2.5-18.4,13.8-35.7,21.6-47.7l1.1-1.8c21-32.3,33.5-85,33.5-140.9c0-1.1,0-2.3,0-3.5
	c0.4,0,0.7,0,1.1,0h75c0,1.1,0.1,2.3,0.1,3.4c0,21.6-4.2,42.5-12.6,62.1c-1.6,3.9,0.2,8.3,4,10c1,0.4,2,0.6,3,0.6c3,0,5.8-1.7,7-4.6
	c9.2-21.6,13.8-44.5,13.8-68.1c0-1.1,0-2.3-0.1-3.4h28.5c29.5,0,53.5-24,53.5-53.5S488,63.6,458.5,63.6z M327.5,85.5
	C321,62.1,312,42.2,301.3,27.6c-2-2.7-4-5.2-6.1-7.5c23,5.8,44.4,16.8,62.8,32.2c-11.8,7.4-21.1,18.6-26,32.1
	C330.4,84.7,328.9,85.1,327.5,85.5z M165.8,305c-43.1-29.7-68.8-78.6-68.8-130.9c0-42.4,16.6-82.3,46.6-112.3
	c20.5-20.5,45.7-34.7,73-41.7c-26.6,29.6-43.5,89.2-43.5,154c0,56.2,12.6,109,33.8,141.3l1,1.5c7.8,11.9,19.2,29.3,21.8,47.7h-29
	C198.5,340.6,185.8,318.7,165.8,305z M311.7,379.8v50.1h-31.4c4.9-10.1,3.2-22.7-5.2-31.1L261.3,385c-3-3-7.8-3-10.8,0l-13.8,13.8
	c-5.1,5.1-7.9,11.9-7.9,19.2c0,4.2,1,8.3,2.7,11.9h-30.5v-50.1h36.8h46.7H311.7z M244,418c0-3.2,1.2-6.2,3.5-8.4l8.4-8.4l8.4,8.4
	c4.6,4.6,4.6,12.2,0,16.9c-4.6,4.6-12.2,4.6-16.9,0C245.3,424.1,244,421.2,244,418z M311.7,469.9c0,14.8-12,26.8-26.8,26.8h-56.9
	c-14.8,0-26.8-12-26.8-26.8v-24.9h110.6L311.7,469.9L311.7,469.9z M323.5,174.1c0,53.1-11.6,102.6-31,132.6l-1.1,1.7
	c-8.3,12.8-21.7,33.4-24.1,56.1H245c-2.6-22.8-16-43.3-24.4-56.1l-1-1.5c-19.6-29.9-31.3-79.6-31.3-133
	c0-63.4,16.5-120.9,42.1-146.5c8.2-8.2,16.8-12.4,25.4-12.4c0,0,0,0,0,0c0,0,0,0,0,0c22.9,0,45.3,30.2,57.6,77.3
	c-10.5,8-17.3,20.6-17.3,34.7c0,18.2,11.2,33.8,27.1,40.2C323.5,169.7,323.5,171.9,323.5,174.1z M458.5,155.4H339.8
	c-15.6,0-28.3-12.7-28.3-28.3c0-15,11.7-27.3,26.6-28.2c3.3-0.2,6-2.4,6.9-5.6c5.8-21.1,25.2-35.8,47.1-35.8
	c16.5,0,31.7,8.2,40.8,22c2.1,3.1,6.1,4.3,9.5,2.7c5-2.3,10.4-3.5,16-3.5c21.1,0,38.3,17.2,38.3,38.3S479.6,155.4,458.5,155.4z"/>
</svg>
