<?xml version="1.0" encoding="utf-8"?>
<!-- Generator: Adobe Illustrator 21.1.0, SVG Export Plug-In . SVG Version: 6.00 Build 0)  -->
<svg version="1.1" id="Capa_1" xmlns="http://www.w3.org/2000/svg" xmlns:xlink="http://www.w3.org/1999/xlink" x="0px" y="0px"
	 viewBox="0 0 512 512" style="enable-background:new 0 0 512 512;" xml:space="preserve">
<style type="text/css">
	.st0{fill:#54B1F7;}
</style>
<g>
	<g>
		<path class="st0" d="M168.5,107.9c-4.1-0.6-7.9,2.2-8.5,6.3c-3.8,25.7-26.8,45.1-53.4,45.1c-29.8,0-54-23.6-54-52.6
			c0-29,24.2-52.6,54-52.6c19.5,0,37.6,10.4,47.1,27c2.1,3.6,6.6,4.8,10.2,2.8c3.6-2.1,4.8-6.6,2.8-10.2
			c-12.2-21.3-35.3-34.6-60.1-34.6c-38,0-69,30.3-69,67.6c0,37.3,30.9,67.6,69,67.6c34,0,63.4-24.9,68.3-57.9
			C175.4,112.3,172.6,108.5,168.5,107.9z"/>
	</g>
</g>
<g>
	<g>
		<path class="st0" d="M106.5,2C47.8,2,0,49,0,106.7c0,21.6,6.6,42.3,19.2,60c12,16.9,28.6,29.8,48,37.3l29.4,50
			c1.9,3.3,5.4,5.4,9.2,5.6c0.2,0,14.2,0,14.2,0c4.1,0,7.5-3.4,7.5-7.5c0-3.5-2.4-6.5-5.7-7.3l24.1-40.9c6.7-2.6,13.2-5.9,19.2-9.8
			c3.5-2.2,4.5-6.9,2.2-10.4c-2.2-3.5-6.9-4.5-10.4-2.2c-5.5,3.5-11.4,6.5-17.5,8.8c-2.5,0.9-4.5,2.7-5.9,4.9l-27,46l-27-46
			c-1.3-2.3-3.4-4-5.9-4.9c-17.1-6.5-31.7-17.7-42.2-32.5C20.7,142.9,15,125.1,15,106.7C15,57.2,56.1,17,106.5,17
			C157,17,198,57.2,198,106.7c0,16.2-4.4,32-12.8,45.8c-2.2,3.5-1,8.2,2.5,10.3c3.5,2.2,8.2,1,10.3-2.5c9.8-16.1,15-34.6,15-53.6
			C213,49,165.3,2,106.5,2z"/>
	</g>
</g>
<g>
	<g>
		<path class="st0" d="M106.5,72.7c-19.1,0-34.6,15.3-34.6,34s15.5,34,34.6,34c19.1,0,34.6-15.3,34.6-34
			C141.1,88,125.6,72.7,106.5,72.7z M106.5,125.7c-10.8,0-19.6-8.5-19.6-19s8.8-19,19.6-19c10.8,0,19.6,8.5,19.6,19
			C126.1,117.2,117.3,125.7,106.5,125.7z"/>
	</g>
</g>
<g>
	<g>
		<path class="st0" d="M80.7,385.6c-4.1,0-7.5,3.4-7.5,7.5v12c0,4.1,3.4,7.5,7.5,7.5s7.5-3.4,7.5-7.5v-12
			C88.2,389,84.9,385.6,80.7,385.6z"/>
	</g>
</g>
<g>
	<g>
		<path class="st0" d="M80.7,422.7c-4.1,0-7.5,3.4-7.5,7.5v12c0,4.1,3.4,7.5,7.5,7.5s7.5-3.4,7.5-7.5v-12
			C88.2,426,84.9,422.7,80.7,422.7z"/>
	</g>
</g>
<g>
	<g>
		<path class="st0" d="M98.1,464.4c-2.5-0.5-4.7-1.8-6.4-3.7c-2.8-3-7.6-3.2-10.6-0.3c-3,2.8-3.2,7.6-0.3,10.6
			c3.8,4.1,8.7,6.9,14.1,8.1c0.5,0.1,1.1,0.2,1.6,0.2c3.4,0,6.5-2.4,7.3-5.9C104.7,469.3,102.1,465.3,98.1,464.4z"/>
	</g>
</g>
<g>
	<g>
		<path class="st0" d="M157.1,244.7h-12c-4.1,0-7.5,3.4-7.5,7.5s3.4,7.5,7.5,7.5h12c4.1,0,7.5-3.4,7.5-7.5S161.2,244.7,157.1,244.7z
			"/>
	</g>
</g>
<g>
	<g>
		<path class="st0" d="M133.5,464.7h-12c-4.1,0-7.5,3.4-7.5,7.5s3.4,7.5,7.5,7.5h12c4.1,0,7.5-3.4,7.5-7.5S137.6,464.7,133.5,464.7z
			"/>
	</g>
</g>
<g>
	<g>
		<path class="st0" d="M379.4,244.7h-12c-4.1,0-7.5,3.4-7.5,7.5s3.4,7.5,7.5,7.5h12c4.1,0,7.5-3.4,7.5-7.5S383.6,244.7,379.4,244.7z
			"/>
	</g>
</g>
<g>
	<g>
		<path class="st0" d="M94.4,353.9c-2.5-3.3-7.3-3.9-10.5-1.3c-4.4,3.4-7.6,8-9.3,13.3c-1.3,3.9,0.9,8.2,4.8,9.4
			c0.8,0.2,1.5,0.4,2.3,0.4c3.2,0,6.1-2,7.1-5.2c0.8-2.4,2.3-4.5,4.3-6.1C96.4,361.9,97,357.2,94.4,353.9z"/>
	</g>
</g>
<g>
	<g>
		<path class="st0" d="M268.2,244.7h-12c-4.1,0-7.5,3.4-7.5,7.5s3.4,7.5,7.5,7.5h12c4.1,0,7.5-3.4,7.5-7.5S272.4,244.7,268.2,244.7z
			"/>
	</g>
</g>
<g>
	<g>
		<path class="st0" d="M170.5,464.7h-12c-4.1,0-7.5,3.4-7.5,7.5s3.4,7.5,7.5,7.5h12c4.1,0,7.5-3.4,7.5-7.5S174.7,464.7,170.5,464.7z
			"/>
	</g>
</g>
<g>
	<g>
		<path class="st0" d="M231.2,244.7h-12c-4.1,0-7.5,3.4-7.5,7.5s3.4,7.5,7.5,7.5h12c4.1,0,7.5-3.4,7.5-7.5S235.3,244.7,231.2,244.7z
			"/>
	</g>
</g>
<g>
	<g>
		<path class="st0" d="M194.1,244.7h-12c-4.1,0-7.5,3.4-7.5,7.5s3.4,7.5,7.5,7.5h12c4.1,0,7.5-3.4,7.5-7.5S198.3,244.7,194.1,244.7z
			"/>
	</g>
</g>
<g>
	<g>
		<path class="st0" d="M309.9,346.8h-12c-4.1,0-7.5,3.4-7.5,7.5s3.4,7.5,7.5,7.5h12c4.1,0,7.5-3.4,7.5-7.5S314,346.8,309.9,346.8z"
			/>
	</g>
</g>
<g>
	<g>
		<path class="st0" d="M392.9,464.7h-12c-4.1,0-7.5,3.4-7.5,7.5s3.4,7.5,7.5,7.5h12c4.1,0,7.5-3.4,7.5-7.5S397,464.7,392.9,464.7z"
			/>
	</g>
</g>
<g>
	<g>
		<path class="st0" d="M342.4,244.7h-12c-4.1,0-7.5,3.4-7.5,7.5s3.4,7.5,7.5,7.5h12c4.1,0,7.5-3.4,7.5-7.5S346.5,244.7,342.4,244.7z
			"/>
	</g>
</g>
<g>
	<g>
		<path class="st0" d="M355.8,464.7h-12c-4.1,0-7.5,3.4-7.5,7.5s3.4,7.5,7.5,7.5h12c4.1,0,7.5-3.4,7.5-7.5
			C363.3,468,360,464.7,355.8,464.7z"/>
	</g>
</g>
<g>
	<g>
		<path class="st0" d="M244.6,464.7h-12c-4.1,0-7.5,3.4-7.5,7.5s3.4,7.5,7.5,7.5h12c4.1,0,7.5-3.4,7.5-7.5S248.8,464.7,244.6,464.7z
			"/>
	</g>
</g>
<g>
	<g>
		<path class="st0" d="M235.8,346.8h-12c-4.1,0-7.5,3.4-7.5,7.5s3.4,7.5,7.5,7.5h12c4.1,0,7.5-3.4,7.5-7.5
			C243.3,350.2,239.9,346.8,235.8,346.8z"/>
	</g>
</g>
<g>
	<g>
		<path class="st0" d="M305.3,244.7h-12c-4.1,0-7.5,3.4-7.5,7.5s3.4,7.5,7.5,7.5h12c4.1,0,7.5-3.4,7.5-7.5S309.4,244.7,305.3,244.7z
			"/>
	</g>
</g>
<g>
	<g>
		<path class="st0" d="M207.6,464.7h-12c-4.1,0-7.5,3.4-7.5,7.5s3.4,7.5,7.5,7.5h12c4.1,0,7.5-3.4,7.5-7.5S211.7,464.7,207.6,464.7z
			"/>
	</g>
</g>
<g>
	<g>
		<path class="st0" d="M272.8,346.8h-12c-4.1,0-7.5,3.4-7.5,7.5s3.4,7.5,7.5,7.5h12c4.1,0,7.5-3.4,7.5-7.5S277,346.8,272.8,346.8z"
			/>
	</g>
</g>
<g>
	<g>
		<path class="st0" d="M423.7,266.7c-3.1,0-6.2,0.2-9.3,0.5c-0.9-4.8-3.1-9.3-6.3-13c-2.7-3.1-7.5-3.4-10.6-0.7
			c-3.1,2.7-3.4,7.5-0.7,10.6c1.5,1.7,2.5,3.7,2.9,5.9c-34.9,9.7-61.1,40.1-64,76.9h-0.7c-4.1,0-7.5,3.4-7.5,7.5s3.4,7.5,7.5,7.5
			h0.9c1.4,14.9,6.7,29.1,15.5,41.4c9.9,13.9,23.4,24.5,39.3,30.8l20.6,35c-0.5,1-0.7,2.1-0.7,3.2c0,4.1,3.4,7.5,7.5,7.5h6
			c0.6,0,1.3-0.1,1.9-0.2c3-0.6,5.6-2.4,7.1-5.1l23.8-40.4c15.9-6.3,29.5-16.9,39.3-30.8c10.4-14.6,15.9-31.8,15.9-49.7
			C512,305.6,472.4,266.7,423.7,266.7z M483.9,394.5c-8.4,11.8-20.1,20.8-33.8,26c-2.3,0.9-4.2,2.5-5.5,4.6l-20.9,35.5l-20.8-35.5
			c-1.2-2.1-3.2-3.8-5.5-4.7c-13.7-5.2-25.4-14.2-33.8-26c-8.6-12.1-13.1-26.2-13.1-41c0-39.6,32.9-71.8,73.3-71.8
			s73.3,32.2,73.3,71.8C497,368.2,492.5,382.4,483.9,394.5z"/>
	</g>
</g>
<g>
	<g>
		<path class="st0" d="M467.3,348.8c-0.5-4.1-4.2-7.1-8.3-6.6c-4.1,0.5-7.1,4.2-6.6,8.3c0.1,1,0.2,2,0.2,3c0,15.5-12.9,28-28.8,28
			c-15.9,0-28.8-12.6-28.8-28c0-15.5,12.9-28,28.8-28c4.6,0,8.9,1,13,3c3.7,1.8,8.2,0.3,10-3.4c1.8-3.7,0.3-8.2-3.4-10
			c-6.1-3-12.7-4.6-19.6-4.6c-24.2,0-43.8,19.3-43.8,43s19.7,43,43.8,43s43.8-19.3,43.8-43C467.5,351.9,467.5,350.4,467.3,348.8z"/>
	</g>
</g>
<g>
	<g>
		<path class="st0" d="M198.7,346.8h-11.4c-4.3-16-18.9-27.8-36.2-27.8c-17.3,0-31.9,11.8-36.2,27.8h-2.3c-4.1,0-7.5,3.4-7.5,7.5
			s3.4,7.5,7.5,7.5h1.4c2.6,18.2,18.2,32.2,37.1,32.2c18.9,0,34.5-14,37.1-32.2h10.5c4.1,0,7.5-3.4,7.5-7.5S202.9,346.8,198.7,346.8
			z M151.1,379c-12.4,0-22.5-10.1-22.5-22.5s10.1-22.5,22.5-22.5s22.5,10.1,22.5,22.5S163.5,379,151.1,379z"/>
	</g>
</g>
<g>
	<g>
		<path class="st0" d="M298.1,435c-20.7,0-37.5,16.8-37.5,37.5c0,20.7,16.8,37.5,37.5,37.5c20.7,0,37.5-16.8,37.5-37.5
			C335.6,451.8,318.8,435,298.1,435z M298.1,495c-12.4,0-22.5-10.1-22.5-22.5s10.1-22.5,22.5-22.5s22.5,10.1,22.5,22.5
			S310.5,495,298.1,495z"/>
	</g>
</g>
</svg>
