<?xml version="1.0" encoding="utf-8"?>
<!-- Generator: Adobe Illustrator 21.1.0, SVG Export Plug-In . SVG Version: 6.00 Build 0)  -->
<svg version="1.1" id="Capa_1" xmlns="http://www.w3.org/2000/svg" xmlns:xlink="http://www.w3.org/1999/xlink" x="0px" y="0px"
	 viewBox="0 0 512 512" style="enable-background:new 0 0 512 512;" xml:space="preserve">
<style type="text/css">
	.st0{fill:#5AAAE7;}
	.st1{fill:#FFFFFF;}
</style>
<circle class="st0" cx="256" cy="256.5" r="255.9"/>
<g>
	<g>
		<path class="st1" d="M295.4,267l-22.3,22.4c-9,9.1-24.9,9.3-34.2,0L216.6,267l-80,80.3c3,1.4,6.3,2.2,9.8,2.2h219.2
			c3.5,0,6.8-0.8,9.8-2.2L295.4,267z"/>
	</g>
</g>
<g>
	<g>
		<path class="st1" d="M365.6,162.5H146.4c-3.5,0-6.8,0.8-9.8,2.2l85.5,85.8c0,0,0,0,0,0c0,0,0,0,0,0l27.8,27.9c3,3,9.1,3,12.1,0
			l27.8-27.9c0,0,0,0,0,0c0,0,0,0,0,0l85.5-85.8C372.4,163.3,369.1,162.5,365.6,162.5z"/>
	</g>
</g>
<g>
	<g>
		<path class="st1" d="M125.5,175.6c-1.5,3.1-2.5,6.6-2.5,10.3v140.3c0,3.7,0.9,7.2,2.5,10.3l80.2-80.4L125.5,175.6z"/>
	</g>
</g>
<g>
	<g>
		<path class="st1" d="M386.5,175.6L306.4,256l80.2,80.4c1.5-3.1,2.5-6.6,2.5-10.3V185.9C389,182.2,388.1,178.7,386.5,175.6z"/>
	</g>
</g>
</svg>
