<?xml version="1.0" encoding="utf-8"?>
<!-- Generator: Adobe Illustrator 21.1.0, SVG Export Plug-In . SVG Version: 6.00 Build 0)  -->
<svg version="1.1" id="Layer_1" xmlns="http://www.w3.org/2000/svg" xmlns:xlink="http://www.w3.org/1999/xlink" x="0px" y="0px"
	 viewBox="0 0 512 512" style="enable-background:new 0 0 512 512;" xml:space="preserve">
<style type="text/css">
	.st0{fill:#5AAAE7;}
</style>
<path class="st0" d="M141.2,373.1h82.4c3.5,0,6.4-2.9,6.4-6.4s-2.9-6.4-6.4-6.4h-82.4c-3.5,0-6.4,2.9-6.4,6.4
	S137.7,373.1,141.2,373.1z"/>
<path class="st0" d="M141.2,410.9h82.4c3.5,0,6.4-2.9,6.4-6.4s-2.9-6.4-6.4-6.4h-82.4c-3.5,0-6.4,2.9-6.4,6.4
	C134.8,408.1,137.7,410.9,141.2,410.9z"/>
<path class="st0" d="M285.4,317h-206c-3.5,0-6.4,2.9-6.4,6.4V401h12.8v-71.2H279v111.7H85.8v-10.6H73v17c0,3.5,2.9,6.4,6.4,6.4h206
	c3.5,0,6.4-2.9,6.4-6.4V323.4C291.8,319.8,289,317,285.4,317z"/>
<path class="st0" d="M285,179.3c-0.5,4.6-1.2,9.1-2.3,13.5h-39.2c1.4-7.7,2.2-15.8,2.2-24.4c0-7.9-0.7-15.4-1.8-22.5h38.8
	c1,4.4,1.8,8.9,2.3,13.5h12.9c-5.1-59.4-54.9-106-115.5-106c-63.9,0-115.9,52-115.9,115.9s52,115.9,115.9,115.9
	c60.6,0,110.4-46.7,115.5-105.9L285,179.3L285,179.3z M156.5,69.6c-11,12.8-25.9,34.2-33.1,63.4H86C97.7,102,124,78.1,156.5,69.6z
	 M79.3,169.3c0-8.1,1-15.9,2.8-23.5h38.8c-1.1,7.1-1.8,14.6-1.8,22.5c0,8.6,0.8,16.7,2.2,24.4H82.1
	C80.3,185.2,79.3,177.4,79.3,169.3z M86,205.6h38.3c8.6,30.4,26,52.4,38.1,64.9C127.1,263.5,98.4,238.5,86,205.6z M176,265.9
	c-10-9.6-28.7-30.5-38.2-60.3H176V265.9z M176,192.8h-41.6c-1.6-7.7-2.5-15.8-2.5-24.4c0-7.9,0.7-15.4,1.9-22.5H176V192.8z M176,133
	h-39.3c10-35.9,32.4-58.9,39.3-65.2V133z M278.8,133h-37.4c-7.2-29.2-22.1-50.7-33.2-63.5C240.8,78,267.1,101.9,278.8,133z
	 M188.8,67.9c7,6.5,29.4,29.3,39.3,65.1h-39.3V67.9z M188.8,145.8H231c1.2,7.1,1.9,14.6,1.9,22.5c0,8.6-1,16.7-2.5,24.4h-41.6
	L188.8,145.8L188.8,145.8z M188.8,266.1v-60.5H227C217.4,235.6,198.7,256.6,188.8,266.1z M202.7,270.4c12-12.4,29.3-34.5,37.9-64.8
	h38.3C266.4,238.4,237.8,263.4,202.7,270.4z"/>
<path class="st0" d="M512,333.3V67.8c0-3.6-2.9-6.5-6.5-6.5H364.9c-0.1,0-0.1-0.1-0.1-0.1V50.9c0-28.1-22.9-50.9-50.9-50.9H31.5
	C14.2,0,0,14.2,0,31.5v37.4C0,68.9,0.1,69,0.1,69h12.5c0.1,0,0.1-0.1,0.1-0.1V38.5c0-14.2,11.5-25.7,25.7-25.7h275.3
	c21.1,0,38.2,17.1,38.2,38.2v409.8c0,21.1-17.1,38.2-38.2,38.2H41c-15.5,0-28.2-12.6-28.2-28.1V99.1c0-0.1-0.1-0.1-0.1-0.1H0.1
	C0.1,99,0,99.1,0,99.1V478c0,18.7,15.3,34,34,34h279.9c28.1,0,50.9-22.9,50.9-50.9v-10.3c0-0.1,0.1-0.1,0.1-0.1h140.5
	c3.6,0,6.5-2.9,6.5-6.5v-80.7c0-0.1-0.1-0.1-0.1-0.1h-12.5c-0.1,0-0.1,0.1-0.1,0.1v74.3c0,0.1-0.1,0.1-0.1,0.1H364.9
	c-0.1,0-0.1-0.1-0.1-0.1v-64.5c0-0.1,0.1-0.1,0.1-0.1h82.8c3,0,5.8-2,6.5-4.9c1-4.1-2.2-7.9-6.2-7.9h-83.1c-0.1,0-0.1-0.1-0.1-0.1
	v-37c0-0.1,0.1-0.1,0.1-0.1h82.8c3,0,5.8-2,6.5-4.9c1-4.1-2.2-7.9-6.2-7.9h-83.1c-0.1,0-0.1-0.1-0.1-0.1v-37.1
	c0-0.1,0.1-0.1,0.1-0.1h82.8c3,0,5.8-2,6.5-4.9c1-4.1-2.2-7.9-6.2-7.9h-83.1c-0.1,0-0.1-0.1-0.1-0.1v-44.5c0-0.1,0.1-0.1,0.1-0.1
	h82.9c3.6,0,6.5-2.9,6.5-6.5v-69.1c0-3.6-2.9-6.5-6.5-6.5h-82.9c-0.1,0-0.1-0.1-0.1-0.1V74.2c0-0.1,0.1-0.1,0.1-0.1h134.1
	c0.1,0,0.1,0.1,0.1,0.1v258.9c0,0.1,0.1,0.1,0.1,0.1L512,333.3L512,333.3z M441.6,145.8v56.5c0,0.1-0.1,0.1-0.1,0.1h-76.5
	c-0.1,0-0.1-0.1-0.1-0.1v-56.3c0-0.1,0.1-0.1,0.1-0.1L441.6,145.8L441.6,145.8z"/>
</svg>
