<?xml version="1.0" encoding="utf-8"?>
<!-- Generator: Adobe Illustrator 21.1.0, SVG Export Plug-In . SVG Version: 6.00 Build 0)  -->
<svg version="1.1" id="Capa_1" xmlns="http://www.w3.org/2000/svg" xmlns:xlink="http://www.w3.org/1999/xlink" x="0px" y="0px"
	 viewBox="0 0 512 512" style="enable-background:new 0 0 512 512;" xml:space="preserve">
<style type="text/css">
	.st0{fill:#5AAAE7;}
	.st1{fill:#5AAAE7;stroke:#5AAAE7;stroke-width:5;stroke-miterlimit:10;}
</style>
<g>
	<g>
		<g>
			<path class="st0" d="M438.1,111.1c-31.4-12.4-56.3-35.3-70.1-64.4c-3.8-7.9-11.9-13-20.7-13H164.7c-8.8,0-17,5.1-20.7,13
				c-13.8,29.1-38.7,52-70.1,64.4c-8.8,3.5-14.5,11.9-14.5,21.4v44.4c0,58.2,17,115.7,49.1,166.3c32.4,51.1,79.4,93.8,135.9,123.5
				l0.9,0.5c3.4,1.8,7,2.6,10.7,2.6s7.4-0.9,10.7-2.6l0.9-0.5c56.5-29.7,103.5-72.4,135.9-123.5c32.1-50.6,49.1-108.1,49.1-166.3
				v-44.4C452.6,123,446.9,114.6,438.1,111.1z M438,176.9c0,55.4-16.2,110.3-46.8,158.5c-31.1,48.9-76.2,89.9-130.4,118.4l-0.9,0.5
				c-2.5,1.3-5.4,1.3-7.9,0l-0.9-0.5c-54.2-28.5-99.3-69.4-130.4-118.4C90.1,287.2,74,232.4,74,176.9v-44.4c0-3.5,2.1-6.6,5.3-7.8
				c34.8-13.8,62.5-39.2,77.9-71.7c1.4-2.9,4.3-4.7,7.6-4.7h182.6c3.2,0,6.2,1.8,7.6,4.7c15.4,32.4,43.1,57.9,77.9,71.7
				c3.2,1.3,5.3,4.3,5.3,7.8v44.4H438z"/>
		</g>
	</g>
	<g>
		<g>
			<path class="st0" d="M474.7,246.1c-3.9-0.9-7.8,1.6-8.7,5.5c-22.2,98.2-89.8,183.3-185.4,233.6l-22.2,11.7
				c-1.4,0.8-3.1,0.8-4.6,0l-22.2-11.7C135.7,434.8,68.1,349.5,46,251.2c-0.9-3.9-4.8-6.4-8.7-5.5s-6.4,4.8-5.5,8.7
				c23,102.5,93.4,191.4,193,243.7l22.2,11.7c2.8,1.5,6,2.2,9.1,2.2s6.2-0.7,9.1-2.2l22.2-11.7c99.4-52.3,169.7-140.9,192.9-243.3
				C481.1,250.9,478.6,247,474.7,246.1z"/>
		</g>
	</g>
	<g>
		<g>
			<path class="st0" d="M471.1,83.4C432.2,79.3,401.6,52,396.7,17c-1.4-9.7-9.7-17-19.3-17H134.6c-9.7,0-18,7.3-19.3,17
				c-4.9,35-35.5,62.3-74.4,66.4c-9.9,1-17.3,9.4-17.3,19.4V181c0,11.4,0.6,22.9,1.8,34.2c0.4,3.8,3.5,6.5,7.2,6.5
				c0.2,0,0.5,0,0.8,0c4-0.4,6.9-4,6.5-8c-1.1-10.8-1.7-21.8-1.7-32.7v-78.2c0-2.5,1.9-4.6,4.3-4.9C88,93.1,123.9,60.6,129.7,19
				c0.4-2.6,2.4-4.4,4.9-4.4h242.8c2.5,0,4.5,1.9,4.9,4.4c5.8,41.6,41.7,74.1,87.3,78.9c2.4,0.3,4.3,2.4,4.3,4.9V181
				c0,10.8-0.6,21.6-1.6,32.3c-0.4,4,2.5,7.6,6.5,8s7.6-2.5,8-6.5c1.1-11.2,1.7-22.6,1.7-33.8v-78.2C488.4,92.7,481,84.4,471.1,83.4
				z"/>
		</g>
	</g>
</g>
<path class="st1" d="M315.9,137.2c-15.6-15.8-36.4-24.6-58.5-24.9c-0.3,0-0.5,0-0.8,0c-0.1,0-0.2,0-0.3,0c-0.1,0-0.3,0-0.3,0
	c-26.7,0.1-51.9,13.1-67.6,34.9c-1.3,1.8-0.8,4.1,0.8,5.3c1.8,1.3,4.1,0.8,5.3-0.8c10.9-15.2,26.9-25.6,44.7-29.8
	c-12.3,14.4-21.4,43.4-21.4,74.1c0,34.5,14,60.5,18.3,67.7c2.2,3.6,3.5,7.5,3.8,11.6l2,20.3h-8.4l-6.1-18.3
	c-2.4-7.4-7.4-13.9-14-18.4c-20.8-14.3-33.3-37.8-33.3-63c0-10.2,2-20,5.9-29.4c0.8-1.9-0.1-4.2-2.1-5c-1.9-0.8-4.2,0.1-5,2.1
	c-4.3,10.3-6.5,21.1-6.6,32.3c0,27.8,13.7,53.7,36.6,69.4c5.2,3.6,9.1,8.7,11.1,14.5l6.8,20.3v53.2c0,10.3,8.4,18.8,18.8,18.8h21.3
	c10.3,0,18.8-8.4,18.8-18.8v-53.2l6.8-20.3c1.9-5.8,5.8-10.9,10.8-14.4c23-15.7,36.8-41.6,36.8-69.4
	C340.1,173.9,331.5,153,315.9,137.2z M278,303.3v24.3h-43.4v-24.3H278z M278,353.4c0,6.1-5,11.1-11.1,11.1h-21.3
	c-6.1,0-11.1-5-11.1-11.1v-18H278L278,353.4L278,353.4z M299,259.1c-6.5,4.4-11.4,10.9-13.8,18.3l-6.1,18.3h-8.4l2-20.3
	c0.4-4.1,1.7-8,3.8-11.6c4.9-8.2,16.4-30.4,18.1-60.8c0.1-2.1-1.5-3.9-3.7-4.1c-2.1-0.1-3.9,1.5-4.1,3.7c-1.1,19.8-7.4,41.3-17,57.2
	c-2.8,4.5-4.4,9.7-4.9,14.8l-2.1,21h-13.3l-2.1-21c-0.5-5.2-2.2-10.3-4.9-14.8c-4-6.8-17.2-31.2-17.2-63.7
	c0-43.9,18.2-75.7,30.6-76.1c0.2,0,0.3,0,0.4,0c5.7,0.2,12.3,6.8,18,17.7c6.6,12.8,10.9,29.6,12.2,47.4c0.2,2.1,2,3.7,4.1,3.6
	c2.1-0.2,3.7-2,3.6-4.1c-1.3-18.8-6-36.7-13-50.4c-2.5-4.8-5.2-8.9-8-12.3c33.8,7.8,59.1,38.3,59.1,74.1
	C332.4,221.4,319.9,244.9,299,259.1z"/>
</svg>
