<?xml version="1.0" encoding="utf-8"?>
<!-- Generator: Adobe Illustrator 21.1.0, SVG Export Plug-In . SVG Version: 6.00 Build 0)  -->
<svg version="1.1" id="Layer_1" xmlns="http://www.w3.org/2000/svg" xmlns:xlink="http://www.w3.org/1999/xlink" x="0px" y="0px"
	 viewBox="0 0 512 512" style="enable-background:new 0 0 512 512;" xml:space="preserve">
<style type="text/css">
	.st0{fill:#6DC02D;}
	.st1{fill:#FFFFFF;}
	.st2{fill:#6FC32E;}
</style>
<circle class="st0" cx="256" cy="256" r="256"/>
<path class="st1" d="M401.3,248.7c0.7-3.5,1-6.5,1.2-8.9c0.3-3.9,0-9.6-0.1-11.4c-3.6-61.8-67.7-111.1-146.3-111.1
	c-80.9,0-146.5,52.2-146.5,116.5c0,59.1,55.4,108,127.2,115.5c4.4,0.5,7.6,4.4,7.1,8.8l-3.1,27.5c-0.7,6.2,5.8,10.8,11.4,8.1
	c60.6-29.3,96.9-59.4,118.6-85.5c3.9-4.7,16.8-22.8,19.4-27.5C395.6,270.8,399.5,260,401.3,248.7z"/>
<g>
	<path class="st2" d="M175.4,257.5v-49.1c0-4.1-3.4-7.5-7.5-7.5l0,0c-4.1,0-7.5,3.4-7.5,7.5V265c0,4.1,3.4,7.5,7.5,7.5h30
		c4.1,0,7.5-3.4,7.5-7.5l0,0c0-4.1-3.4-7.5-7.5-7.5L175.4,257.5L175.4,257.5z"/>
	<path class="st2" d="M221.6,272.5h-3.3c-3.2,0-5.9-2.6-5.9-5.9v-59.8c0-3.2,2.6-5.9,5.9-5.9h3.3c3.2,0,5.9,2.6,5.9,5.9v59.8
		C227.5,269.9,224.9,272.5,221.6,272.5z"/>
	<path class="st2" d="M282.2,208.4V243c0,0-29.9-39-30.4-39.5c-1.4-1.6-3.5-2.6-5.9-2.5c-4.1,0.2-7.2,3.7-7.2,7.8V265
		c0,4.1,3.4,7.5,7.5,7.5l0,0c4.1,0,7.5-3.4,7.5-7.5v-34.4c0,0,30.4,39.4,30.8,39.8c1.3,1.3,3.1,2,5.1,2c4.2,0,7.6-3.6,7.6-7.8v-56.3
		c0-4.1-3.4-7.5-7.5-7.5l0,0C285.5,200.9,282.2,204.3,282.2,208.4z"/>
	<path class="st2" d="M353.4,208.4L353.4,208.4c0-4.1-3.4-7.5-7.5-7.5h-30c-4.1,0-7.5,3.4-7.5,7.5V265c0,4.1,3.4,7.5,7.5,7.5h30
		c4.1,0,7.5-3.4,7.5-7.5l0,0c0-4.1-3.4-7.5-7.5-7.5h-22.5v-13.3h22.5c4.1,0,7.5-3.4,7.5-7.5l0,0c0-4.1-3.4-7.5-7.5-7.5h-22.5v-13.3
		h22.5C350,215.9,353.4,212.6,353.4,208.4z"/>
</g>
</svg>
