<?xml version="1.0" encoding="utf-8"?>
<!-- Generator: Adobe Illustrator 22.0.1, SVG Export Plug-In . SVG Version: 6.00 Build 0)  -->
<svg version="1.1" id="Isolation_Mode" xmlns="http://www.w3.org/2000/svg" xmlns:xlink="http://www.w3.org/1999/xlink" x="0px"
	 y="0px" viewBox="0 0 200 155.6" style="enable-background:new 0 0 200 155.6;" xml:space="preserve">
<style type="text/css">
	.st0{fill:#0099DF;}
	.st1{fill:#6C6BBD;}
	.st2{fill:#EB001B;}
	.st3{fill:#FFFFFF;}
	.st4{fill:#231F20;}
</style>
<g transform="matrix(3.1437 0 0 3.1437 -1661.1 -866.42)">
	<g transform="matrix(1.25 0 0 -1.25 1176 710.77)">
		<path class="st0" d="M-467.7,322.7v0.6h-0.2l-0.2-0.4l-0.2,0.4h-0.2v-0.6h0.1v0.5l0.2-0.4h0.1l0.2,0.4v-0.5H-467.7z M-468.7,322.7
			v0.5h0.2v0.1h-0.5v-0.1h0.2v-0.5H-468.7z"/>
	</g>
	<path class="st1" d="M568.8,310.7h-17.2v-30.9h17.2V310.7z"/>
	<g transform="matrix(1.25 0 0 -1.25 1137.3 698.59)">
		<path class="st2" d="M-467.7,322.7c0,5,2.3,9.5,6,12.4c-2.7,2.1-6.1,3.4-9.7,3.4c-8.7,0-15.7-7-15.7-15.7c0-8.7,7-15.7,15.7-15.7
			c3.7,0,7,1.3,9.7,3.4C-465.3,313.2-467.7,317.6-467.7,322.7"/>
	</g>
	<g transform="matrix(1.25 0 0 -1.25 1176.6 698.59)">
		<path class="st0" d="M-467.7,322.7c0-8.7-7-15.7-15.7-15.7c-3.7,0-7,1.3-9.7,3.4c3.7,2.9,6,7.3,6,12.4s-2.3,9.5-6,12.4
			c2.7,2.1,6.1,3.4,9.7,3.4C-474.7,338.4-467.7,331.3-467.7,322.7"/>
	</g>
	<g transform="matrix(1.25 0 0 -1.25 1159.2 722.78)">
		<path class="st3" d="M-467.7,322.7c0.2,0,0.4,0,0.6-0.1l-0.3-0.9c-0.2,0.1-0.4,0.1-0.6,0.1c-0.6,0-0.9-0.4-0.9-1.1v-2.3h-0.9v4.2
			h0.9V322C-468.5,322.4-468.2,322.7-467.7,322.7 M-471,321.7h-1.5v-1.9c0-0.4,0.1-0.7,0.6-0.7c0.2,0,0.5,0.1,0.8,0.2l0.3-0.8
			c-0.3-0.2-0.7-0.3-1.1-0.3c-1.1,0-1.4,0.6-1.4,1.5v1.9h-0.8v0.8h0.8v1.3h0.9v-1.3h1.5V321.7z M-482.6,320.8c0.1,0.6,0.5,1,1.1,1
			c0.6,0,1-0.4,1.1-1H-482.6z M-479.5,320.5c0,1.3-0.8,2.2-2,2.2c-1.2,0-2.1-0.9-2.1-2.2c0-1.3,0.9-2.2,2.1-2.2
			c0.6,0,1.2,0.2,1.7,0.6l-0.4,0.7c-0.3-0.3-0.8-0.4-1.2-0.4c-0.6,0-1.1,0.3-1.2,1h3.1C-479.5,320.2-479.5,320.3-479.5,320.5
			 M-475.5,321.5c-0.3,0.2-0.8,0.4-1.3,0.4c-0.5,0-0.8-0.2-0.8-0.5c0-0.3,0.3-0.4,0.7-0.4l0.4-0.1c0.9-0.1,1.5-0.5,1.5-1.3
			c0-0.8-0.7-1.4-1.9-1.4c-0.7,0-1.3,0.2-1.8,0.5l0.4,0.7c0.3-0.2,0.8-0.4,1.4-0.4c0.6,0,1,0.2,1,0.5c0,0.2-0.2,0.4-0.7,0.4
			l-0.4,0.1c-0.9,0.1-1.4,0.6-1.4,1.2c0,0.8,0.7,1.3,1.7,1.3c0.7,0,1.3-0.1,1.7-0.4L-475.5,321.5z M-464.3,321.8
			c-0.2,0-0.4,0-0.5-0.1c-0.2-0.1-0.3-0.2-0.4-0.3c-0.1-0.1-0.2-0.3-0.3-0.4c-0.1-0.2-0.1-0.3-0.1-0.5c0-0.2,0-0.4,0.1-0.5
			c0.1-0.2,0.2-0.3,0.3-0.4c0.1-0.1,0.3-0.2,0.4-0.3c0.2-0.1,0.3-0.1,0.5-0.1s0.4,0,0.5,0.1c0.2,0.1,0.3,0.2,0.4,0.3
			c0.1,0.1,0.2,0.3,0.3,0.4c0.1,0.2,0.1,0.3,0.1,0.5c0,0.2,0,0.4-0.1,0.5c-0.1,0.2-0.2,0.3-0.3,0.4c-0.1,0.1-0.3,0.2-0.4,0.3
			C-464,321.8-464.1,321.8-464.3,321.8 M-464.3,322.7c0.3,0,0.6-0.1,0.9-0.2c0.3-0.1,0.5-0.3,0.7-0.5c0.2-0.2,0.4-0.4,0.5-0.7
			c0.1-0.3,0.2-0.6,0.2-0.9s-0.1-0.6-0.2-0.9c-0.1-0.3-0.3-0.5-0.5-0.7c-0.2-0.2-0.4-0.4-0.7-0.5c-0.3-0.1-0.6-0.2-0.9-0.2
			s-0.6,0.1-0.9,0.2c-0.3,0.1-0.5,0.3-0.7,0.5c-0.2,0.2-0.4,0.4-0.5,0.7c-0.1,0.3-0.2,0.6-0.2,0.9s0.1,0.6,0.2,0.9
			c0.1,0.3,0.3,0.5,0.5,0.7c0.2,0.2,0.4,0.4,0.7,0.5C-465,322.6-464.7,322.7-464.3,322.7 M-487.9,320.5c0,0.7,0.5,1.3,1.3,1.3
			c0.8,0,1.3-0.6,1.3-1.3s-0.5-1.3-1.3-1.3C-487.5,319.1-487.9,319.7-487.9,320.5 M-484.6,320.5v2.1h-0.9V322
			c-0.3,0.4-0.7,0.6-1.3,0.6c-1.2,0-2.1-0.9-2.1-2.2c0-1.3,0.9-2.2,2.1-2.2c0.6,0,1,0.2,1.3,0.6v-0.5h0.9V320.5z M-489.7,318.4v2.6
			c0,1-0.6,1.7-1.6,1.7c-0.5,0-1.1-0.2-1.5-0.7c-0.3,0.5-0.7,0.7-1.4,0.7c-0.4,0-0.9-0.1-1.2-0.6v0.5h-0.9v-4.2h0.9v2.3
			c0,0.7,0.4,1.1,1,1.1c0.6,0,0.9-0.4,0.9-1.1v-2.3h0.9v2.3c0,0.7,0.4,1.1,1,1.1c0.6,0,0.9-0.4,0.9-1.1v-2.3H-489.7z"/>
	</g>
	<g transform="matrix(1.25 0 0 -1.25 1167.4 727.74)">
		<path class="st4" d="M-467.7,322.7v-0.1h0.1c0,0,0,0,0.1,0c0,0,0,0,0,0s0,0,0,0C-467.5,322.6-467.5,322.7-467.7,322.7
			L-467.7,322.7z M-467.6,322.7c0,0,0.1,0,0.1,0c0,0,0-0.1,0-0.1c0,0,0-0.1,0-0.1c0,0-0.1,0-0.1,0l0.1-0.1h-0.1l-0.1,0.1h0v-0.1
			h-0.1v0.4H-467.6z M-467.6,322.2c0,0,0.1,0,0.1,0c0,0,0.1,0,0.1,0.1c0,0,0.1,0.1,0.1,0.1c0,0,0,0.1,0,0.1c0,0,0,0.1,0,0.1
			c0,0,0,0.1-0.1,0.1c0,0-0.1,0.1-0.1,0.1c0,0-0.1,0-0.1,0s-0.1,0-0.1,0c0,0-0.1,0-0.1-0.1c0,0-0.1-0.1-0.1-0.1c0,0,0-0.1,0-0.1
			c0,0,0-0.1,0-0.1c0,0,0-0.1,0.1-0.1c0,0,0.1-0.1,0.1-0.1C-467.7,322.2-467.6,322.2-467.6,322.2 M-467.6,322.9c0.1,0,0.1,0,0.2,0
			c0.1,0,0.1-0.1,0.1-0.1c0,0,0.1-0.1,0.1-0.1c0,0,0-0.1,0-0.2c0-0.1,0-0.1,0-0.2s-0.1-0.1-0.1-0.1c0,0-0.1-0.1-0.1-0.1
			c-0.1,0-0.1,0-0.2,0c-0.1,0-0.1,0-0.2,0s-0.1,0.1-0.1,0.1c0,0-0.1,0.1-0.1,0.1s0,0.1,0,0.2c0,0.1,0,0.1,0,0.2
			c0,0.1,0.1,0.1,0.1,0.1c0,0,0.1,0.1,0.1,0.1C-467.7,322.9-467.6,322.9-467.6,322.9"/>
	</g>
</g>
</svg>
