<?xml version="1.0" encoding="utf-8"?>
<!-- Generator: Adobe Illustrator 21.1.0, SVG Export Plug-In . SVG Version: 6.00 Build 0)  -->
<svg version="1.1" id="Capa_1" xmlns="http://www.w3.org/2000/svg" xmlns:xlink="http://www.w3.org/1999/xlink" x="0px" y="0px"
	 viewBox="0 0 512 512" style="enable-background:new 0 0 512 512;" xml:space="preserve">
<style type="text/css">
	.st0{fill:#54B1F7;}
</style>
<g>
	<g>
		<path class="st0" d="M330.4,247.1H264c-2.8-11.6-12-20.8-23.6-23.6v-88.7c0-4.1-3.4-7.5-7.5-7.5c-4.1,0-7.5,3.4-7.5,7.5v88.7
			c-14,3.4-24.5,16-24.5,31.1c0,17.6,14.3,32,32,32c15,0,27.7-10.5,31.1-24.5h66.4c4.1,0,7.5-3.4,7.5-7.5
			C337.9,250.4,334.6,247.1,330.4,247.1z M232.9,271.6c-9.4,0-17-7.6-17-17s7.6-17,17-17c9.4,0,17,7.6,17,17
			C249.9,264,242.3,271.6,232.9,271.6z"/>
	</g>
</g>
<g>
	<g>
		<path class="st0" d="M165.4,231.5h-44.1c-6.9,0-12.5,5.6-12.5,12.5v21.1c0,6.9,5.6,12.5,12.5,12.5h44.1c6.9,0,12.5-5.6,12.5-12.5
			V244C177.9,237.1,172.3,231.5,165.4,231.5z M162.9,262.7h-39.1v-16.1h39.1V262.7z"/>
	</g>
</g>
<g>
	<g>
		<path class="st0" d="M459.1,310.4c4.4-18,6.7-36.7,6.7-55.8c0-62.2-24.2-120.7-68.2-164.7c-44-44-102.5-68.2-164.7-68.2
			c-62.2,0-120.7,24.2-164.7,68.2C24.2,133.9,0,192.4,0,254.6s24.2,120.7,68.2,164.7c44,44,102.5,68.2,164.7,68.2c0,0,0,0,0,0
			c16.4,0,32.7-1.7,48.6-5.1c4.1-0.9,6.6-4.8,5.8-8.9c-0.9-4.1-4.8-6.6-8.9-5.8c-14.9,3.2-30.2,4.8-45.5,4.8c0,0,0,0,0,0
			c-58.2,0-112.9-22.7-154.1-63.8C37.7,367.5,15,312.8,15,254.6s22.7-112.9,63.8-154.1c41.2-41.2,95.9-63.8,154.1-63.8
			c58.2,0,112.9,22.7,154.1,63.8c41.2,41.2,63.8,95.9,63.8,154.1c0,17.1-2,33.9-5.8,50.1c-8.8-2.7-18.2-4.2-27.9-4.2
			c-2.3,0-4.6,0.1-6.9,0.3c3.9-14.8,5.9-30.2,5.9-46.2c0-16.1-2.1-32.1-6.2-47.6c-1.1-4-5.2-6.4-9.2-5.3c-4,1.1-6.4,5.2-5.3,9.2
			c3.2,11.8,5,23.9,5.5,36.2h-14c-4.1,0-7.5,3.4-7.5,7.5s3.4,7.5,7.5,7.5h14c-0.6,14.3-3.1,28.2-7.1,41.3
			c-41.1,10.4-71.6,47.7-71.6,92c0,0.5,0,1,0,1.6c-23.9,15-51.9,24.2-81.8,25.6v-14c0-4.1-3.4-7.5-7.5-7.5s-7.5,3.4-7.5,7.5v14
			c-40.7-1.8-77.7-18.1-105.9-43.9l9.8-9.8c2.9-2.9,2.9-7.7,0-10.6c-2.9-2.9-7.7-2.9-10.6,0l-9.8,9.8
			c-27.1-29.6-43.7-68.8-44.1-111.9h12.1c4.1,0,7.5-3.4,7.5-7.5s-3.4-7.5-7.5-7.5H65.3c3.1-38.3,19-73.1,43.6-99.9l9.8,9.8
			c1.5,1.5,3.4,2.2,5.3,2.2c1.9,0,3.8-0.7,5.3-2.2c2.9-2.9,2.9-7.7,0-10.6l-9.8-9.8c28.2-25.8,65.2-42.2,105.9-43.9v14
			c0,4.1,3.4,7.5,7.5,7.5s7.5-3.4,7.5-7.5v-14c27.1,1.2,53.5,8.9,76.9,22.5c10.4,6.1,20.2,13.3,29.1,21.4l-9.9,9.9
			c-2.9,2.9-2.9,7.7,0,10.6c1.5,1.5,3.4,2.2,5.3,2.2c1.9,0,3.8-0.7,5.3-2.2l9.9-9.9c7.8,8.5,14.7,17.7,20.6,27.7
			c2.1,3.6,6.7,4.7,10.3,2.6c3.6-2.1,4.7-6.7,2.6-10.3c-15.9-26.8-38.6-49.3-65.6-65c-27.8-16.2-59.6-24.7-91.9-24.7
			c-101,0-183.2,82.2-183.2,183.2s82.2,183.2,183.2,183.2c33.1,0,64.2-8.8,91-24.3c2.3,11.8,6.8,22.8,13,32.7
			c-6.1,3.3-12.4,6.3-18.9,9.1c-3.8,1.6-5.6,6-4,9.8c1.6,3.8,6,5.6,9.8,4c7.6-3.2,15-6.8,22.1-10.8c17.4,19.7,42.8,32.1,71.1,32.1
			c18.6,0,36.6-5.4,52.1-15.6c3.5-2.3,4.4-6.9,2.1-10.4c-2.3-3.5-6.9-4.4-10.4-2.1c-13,8.6-28.2,13.1-43.8,13.1
			c-44,0-79.9-35.8-79.9-79.9s35.8-79.9,79.9-79.9s79.9,35.8,79.9,79.9c0,14-3.7,27.8-10.6,39.9c-2.1,3.6-0.8,8.2,2.7,10.2
			c3.6,2.1,8.2,0.8,10.2-2.7c8.3-14.3,12.7-30.7,12.7-47.4C512,358.2,490.4,325.9,459.1,310.4z"/>
	</g>
</g>
<g>
	<g>
		<path class="st0" d="M470.2,359.3c-4.4-4.3-10.1-6.6-16.2-6.6c-6.3,0-12.2,2.5-16.6,7l-31.4,32.2l-12.7-12.9
			c-4.4-4.5-10.3-7-16.6-7c-6.1,0-11.9,2.4-16.3,6.6c-9.1,9-9.3,23.7-0.3,32.9l25.6,26.2c5.3,5.4,12.7,8.5,20.3,8.5h0c0,0,0,0,0,0
			c7.6,0,15-3.1,20.3-8.6l44.3-45.4C479.5,383,479.3,368.2,470.2,359.3z M459.8,381.7l-44.3,45.4c-2.5,2.6-6,4-9.5,4h0
			c-3.6,0-7-1.5-9.5-4l-25.6-26.2c-3.2-3.2-3.1-8.5,0.1-11.6c1.5-1.5,3.6-2.4,5.8-2.4c2.2,0,4.3,0.9,5.9,2.5l18,18.4
			c1.4,1.4,3.3,2.3,5.4,2.3c0,0,0,0,0,0c2,0,4-0.8,5.4-2.3l36.8-37.7c1.6-1.6,3.6-2.5,5.9-2.5c2.2,0,4.2,0.8,5.7,2.3
			C462.9,373.2,463,378.4,459.8,381.7z"/>
	</g>
</g>
</svg>
