<?xml version="1.0"?>
<svg xmlns="http://www.w3.org/2000/svg" height="512px" viewBox="-94 0 511 512" width="512px" class=""><g><path d="m161.914062 0c-54.917968 0-106.210937 27.621094-136.378906 75.167969-2.230468 3.519531-1.191406 8.175781 2.324219 10.40625 3.519531 2.230469 8.175781 1.1875 10.40625-2.328125 20.421875-32.1875 51.730469-54.585938 87.476563-63.660156-68.246094 54.558593-86.105469 171.972656-29.941407 248.824218 11.703125 16.015625 21.316407 33.789063 28.664063 52.941406h-31.488282c-9.890624-22.695312-23.378906-43.675781-40.144531-62.414062-37.738281-42.179688-46.609375-100.625-27.464843-150.136719 1.503906-3.882812-.425782-8.25-4.3125-9.75-3.882813-1.5-8.25.429688-9.75 4.3125-21.558594 55.761719-10.546876 119.984375 30.292968 165.628907 16.6875 18.652343 29.898438 39.664062 39.273438 62.449218v23.742188h-18.566406c-10.164063 0-18.417969 8.261718-18.417969 18.417968v19.679688c0 10.152344 8.253906 18.417969 18.417969 18.417969h7.136718v50.972656c0 27.203125 22.125 49.328125 49.316406 49.328125h87.707032c19.894531 0 37.734375-11.839844 45.464844-30.175781 1.621093-3.832031-.179688-8.253907-4.019532-9.871094-3.839844-1.621094-8.253906.179687-9.871094 4.019531-5.367187 12.726563-17.761718 20.949219-31.574218 20.949219h-87.707032c-18.878906 0-34.238281-15.359375-34.238281-34.25v-50.972656h156.191407v37.484375c0 4.160156 3.378906 7.539062 7.542968 7.539062 4.160156 0 7.539063-3.378906 7.539063-7.539062v-37.484375h5.75c10.160156 0 18.414062-8.265625 18.414062-18.417969v-19.679688c0-10.15625-8.253906-18.417968-18.414062-18.417968h-18.570313v-23.875c0-.132813-.011718-.265625-.019531-.398438 9.234375-22.515625 22.203125-43.074218 38.566406-61.105468 93.050781-102.601563 21.355469-269.179688-119.605469-269.804688zm-53.941406 259.511719c-57.667968-78.910157-28.523437-202.726563 46.410156-240.621094v302.464844h-13.832031c-8.046875-22.464844-18.988281-43.25-32.578125-61.84375zm-12.023437 76.921875h131.945312v18.75h-131.945312zm165.59375 33.828125c1.835937 0 3.335937 1.5 3.335937 3.339843v19.679688c0 1.839844-1.5 3.339844-3.335937 3.339844-8.890625 0-181.960938 0-199.238281 0-1.839844 0-3.339844-1.5-3.339844-3.339844v-19.679688c0-1.839843 1.5-3.339843 3.339844-3.339843zm-30.933594-48.90625h-31.230469c7.347656-19.15625 16.960938-36.929688 28.667969-52.945313 28.179687-38.5625 40.492187-92.75 29.386719-146.933594-.839844-4.078124-4.828125-6.707031-8.902344-5.871093-4.078125.835937-6.707031 4.824219-5.871094 8.902343 10.230469 49.902344-1.035156 99.761719-26.789062 135.007813-13.589844 18.589844-24.53125 39.375-32.578125 61.839844h-13.832031v-302.441407c27.871093 14.179688 51.78125 42.507813 65.15625 77.808594 1.144531 3.015625 4.007812 4.871094 7.050781 4.871094 5.257812 0 8.921875-5.273438 7.050781-10.210938-11.269531-29.746093-28.875-54.519531-50.378906-71.710937 106.539062 27.40625 145.789062 158.652344 72.011718 240-16.609374 18.308594-29.964843 39.035156-39.742187 61.683594zm0 0" data-original="#000000" class="active-path" data-old_color="#54b1f7" fill="#54b1f7"/></g> </svg>
