<?xml version="1.0" encoding="utf-8"?>
<!-- Generator: Adobe Illustrator 21.1.0, SVG Export Plug-In . SVG Version: 6.00 Build 0)  -->
<svg version="1.1" id="Layer_1" xmlns="http://www.w3.org/2000/svg" xmlns:xlink="http://www.w3.org/1999/xlink" x="0px" y="0px"
	 viewBox="0 0 512 512" style="enable-background:new 0 0 512 512;" xml:space="preserve">
<style type="text/css">
	.st0{fill:#54B1F7;}
</style>
<g>
	<g>
		<path class="st0" d="M385.9,258.6c-21,0-40.8,6.8-57.3,19.8c-3.3,2.6-3.8,7.3-1.3,10.5c2.5,3.3,7.3,3.8,10.5,1.3
			c13.8-10.8,30.4-16.6,48-16.6c43,0,78,35,78,78s-35,78-78,78s-78-35-78-78c0-14.7,4.1-29,11.9-41.5c2.2-3.5,1.1-8.1-2.3-10.3
			c-3.5-2.2-8.1-1.1-10.3,2.3c-9.3,14.8-14.2,31.9-14.2,49.4c0,51.2,41.7,92.9,92.9,92.9s92.9-41.7,92.9-92.9
			C478.8,300.3,437.1,258.6,385.9,258.6z"/>
	</g>
</g>
<g>
	<g>
		<path class="st0" d="M444.6,355.3h-51.2V304c0-4.1-3.4-7.5-7.5-7.5s-7.5,3.4-7.5,7.5v58.7c0,4.1,3.4,7.5,7.5,7.5h58.7
			c4.1,0,7.5-3.4,7.5-7.5S448.7,355.3,444.6,355.3z"/>
	</g>
</g>
<g>
	<g>
		<path class="st0" d="M457.5,247.8V117.9c0-19.5-15.9-35.4-35.4-35.4h-16.1V64.1c0-16.4-13.4-29.8-29.8-29.8s-29.8,13.4-29.8,29.8
			v18.4h-38.7V64.1c0-16.4-13.4-29.8-29.8-29.8s-29.8,13.4-29.8,29.8v18.4h-38.7V64.1c0-16.4-13.4-29.8-29.8-29.8
			s-29.8,13.4-29.8,29.8v18.4h-38.7V64.1c0-16.4-13.4-29.8-29.8-29.8S51.5,47.7,51.5,64.1v18.4H35.4C15.9,82.5,0,98.4,0,117.9v3.7
			c0,4.1,3.4,7.5,7.5,7.5s7.5-3.4,7.5-7.5v-3.7c0-11.3,9.2-20.4,20.4-20.4h16.1c0,0,0,18.4,0,18.4c0,16.4,13.4,29.8,29.8,29.8
			s29.8-13.4,29.8-29.8V97.5h38.7c0,0,0,18.4,0,18.4c0,16.4,13.4,29.8,29.8,29.8s29.8-13.4,29.8-29.8V97.5h38.7c0,0,0,18.4,0,18.4
			c0,16.4,13.4,29.8,29.8,29.8s29.8-13.4,29.8-29.8V97.5h38.7c0,0,0,18.4,0,18.4c0,16.4,13.4,29.8,29.8,29.8s29.8-13.4,29.8-29.8
			V97.5h16.1c11.3,0,20.4,9.2,20.4,20.4v52.8H15v-19.2c0-4.1-3.4-7.5-7.5-7.5S0,147.5,0,151.6V410c0,19.5,15.9,35.4,35.4,35.4h266.3
			c22.3,20.1,51.9,32.3,84.2,32.3c27,0,52.7-8.4,74.5-24.3c3.3-2.4,4.1-7.1,1.6-10.5c-2.4-3.3-7.1-4.1-10.5-1.6
			c-19.1,14-41.8,21.4-65.6,21.4c-61.3,0-111.2-49.9-111.2-111.2s49.9-111.2,111.2-111.2c11.1,0,22.1,1.7,32.7,4.9
			c0.2,0.1,0.4,0.1,0.6,0.2c45,14.2,77.8,56.4,77.8,106c0,25.6-8.9,50.6-25.2,70.4c-2.6,3.2-2.2,7.9,1,10.5c3.2,2.6,7.9,2.2,10.5-1
			c18.4-22.5,28.5-50.8,28.5-79.9C512,308.6,490.4,270.6,457.5,247.8z M96.1,116c0,8.2-6.7,14.8-14.8,14.8s-14.8-6.7-14.8-14.8V64.1
			c0-8.2,6.7-14.8,14.8-14.8c8.2,0,14.8,6.7,14.8,14.8V116z M194.4,116c0,8.2-6.7,14.8-14.8,14.8s-14.8-6.7-14.8-14.8V64.1
			c0-8.2,6.7-14.8,14.8-14.8s14.8,6.7,14.8,14.8V116z M292.8,116c0,8.2-6.7,14.8-14.8,14.8c-8.2,0-14.8-6.7-14.8-14.8V64.1
			c0-8.2,6.7-14.8,14.8-14.8c8.2,0,14.8,6.7,14.8,14.8V116z M391.1,116c0,8.2-6.7,14.8-14.8,14.8c-8.2,0-14.8-6.7-14.8-14.8V64.1
			c0-8.2,6.7-14.8,14.8-14.8c8.2,0,14.8,6.7,14.8,14.8V116z M192,185.8h73.5v71.6H192V185.8z M88.5,430.4H35.4
			c-11.3,0-20.4-9.2-20.4-20.4v-51.1h73.5L88.5,430.4L88.5,430.4z M88.5,343.9H15v-71.6h73.5L88.5,343.9L88.5,343.9z M88.5,257.3H15
			v-71.6h73.5L88.5,257.3L88.5,257.3z M103.5,272.3H177v71.6h-73.5C103.5,343.9,103.5,272.3,103.5,272.3z M177,430.4h-73.5v-71.6
			H177V430.4z M177,257.3h-73.5v-71.6H177V257.3z M192,272.3h73.5v41.4c-3,9.6-4.9,19.7-5.6,30.2h-68V272.3z M287.4,430.4H192v-71.6
			h67.9C261.4,385.3,271,410,287.4,430.4z M280.5,282.3v-10h7.3C285.2,275.5,282.8,278.9,280.5,282.3z M354,229.5
			c-19.6,5.1-37.3,14.8-51.9,27.8h-21.6v-71.6H354V229.5z M442.6,238.9c-7.1-3.6-14.4-6.4-22-8.6c-0.2,0-0.3-0.1-0.5-0.1
			c-11.1-3.1-22.7-4.7-34.2-4.7c-5.7,0-11.3,0.4-16.8,1.1v-40.8h73.5V238.9z"/>
	</g>
</g>
</svg>
