<?xml version="1.0" encoding="utf-8"?>
<!-- Generator: Adobe Illustrator 21.1.0, SVG Export Plug-In . SVG Version: 6.00 Build 0)  -->
<svg version="1.1" id="Layer_1" xmlns="http://www.w3.org/2000/svg" xmlns:xlink="http://www.w3.org/1999/xlink" x="0px" y="0px"
	 viewBox="0 0 512 512" style="enable-background:new 0 0 512 512;" xml:space="preserve">
<style type="text/css">
	.st0{fill:url(#SVGID_1_);}
	.st1{fill:url(#SVGID_2_);}
	.st2{fill:#FFFFFF;}
</style>
<linearGradient id="SVGID_1_" gradientUnits="userSpaceOnUse" x1="169.994" y1="442.0138" x2="299.4934" y2="164.9452" gradientTransform="matrix(1 0 0 -1 1.831055e-04 514)">
	<stop  offset="0" style="stop-color:#00C3FF"/>
	<stop  offset="1" style="stop-color:#00B0ED"/>
</linearGradient>
<path class="st0" d="M420.4,503.2c-109.5,11.7-219.3,11.7-328.8,0c-43.7-4.7-78.2-39.1-82.8-82.8C-2.9,310.9-2.9,201.1,8.8,91.6
	c4.7-43.7,39.1-78.2,82.8-82.8c109.5-11.7,219.3-11.7,328.8,0c43.7,4.7,78.2,39.1,82.8,82.8c11.7,109.5,11.7,219.3,0,328.8
	C498.6,464.1,464.1,498.6,420.4,503.2z"/>
<linearGradient id="SVGID_2_" gradientUnits="userSpaceOnUse" x1="256.002" y1="76.6168" x2="256.002" y2="9.528" gradientTransform="matrix(1 0 0 -1 1.831055e-04 514)">
	<stop  offset="0" style="stop-color:#00B0ED;stop-opacity:0"/>
	<stop  offset="1" style="stop-color:#00A2CE"/>
</linearGradient>
<path class="st1" d="M7.7,409.8c0.4,3.5,0.7,7.1,1.1,10.6c4.7,43.7,39.1,78.2,82.8,82.8c109.5,11.7,219.3,11.7,328.8,0
	c43.7-4.7,78.2-39.1,82.8-82.8c0.4-3.5,0.7-7.1,1.1-10.6H7.7z"/>
<path class="st2" d="M414.7,157.4c-11.3,5.9-28.4,8.7-34,9.5c0-0.3-0.1-0.5-0.1-0.8c19.2-11.9,25.1-34.3,25.1-34.3
	c-11.9,6.8-22.4,10.6-30.3,12.7c-4.4,1.2-8.1,1.8-10.7,2.2c-12-12.3-28.7-19.9-47.2-19.9c-36.4,0-66,29.5-66,66c0,1.3,0,2.6,0.1,3.9
	c0.2,3.2,0.6,6.3,1.2,9.3c-17.6-0.3-81.3-5.7-134.1-67c0,0-29.4,51.3,20,86.3c0,0-20-0.6-30.6-8.1c0,0-3.1,49.4,53.8,65
	c0,0-20,5-30,0.6c0,0,10,42.5,60,45.6c0,0-35.9,32.8-94.5,28.1c28.8,18.2,63,28.8,99.6,28.8c103,0,186.5-83.5,186.5-186.5
	c0-1.3,0-2.6,0-3.9c0-0.8,0-1.5,0-2.3c0-0.5,0-1.1,0-1.6C402.4,178.4,414.7,157.4,414.7,157.4z"/>
</svg>
