<?xml version="1.0" encoding="utf-8"?>
<!-- Generator: Adobe Illustrator 21.1.0, SVG Export Plug-In . SVG Version: 6.00 Build 0)  -->
<svg version="1.1" id="Capa_1" xmlns="http://www.w3.org/2000/svg" xmlns:xlink="http://www.w3.org/1999/xlink" x="0px" y="0px"
	 viewBox="0 0 512 512" style="enable-background:new 0 0 512 512;" xml:space="preserve">
<style type="text/css">
	.st0{fill:#6E64C3;}
	.st1{fill:#FFFFFF;}
</style>
<path class="st0" d="M345.6,417H166.4C127,417,95,385,95,345.6V166.4C95,127,127,95,166.4,95h179.2c39.4,0,71.4,32,71.4,71.4v179.2
	C417,385,385,417,345.6,417z"/>
<g>
	<path class="st1" d="M233.7,227.4c2.5-1.8,4.1-4.5,4.6-7.6c0.5-3-0.3-6.1-2.1-8.6L224,195c-1.4-1.9-3.6-3.2-5.9-3.5
		s-4.8,0.3-6.6,1.8c-2.2,1.8-4.7,3.7-7.1,5.6c-5.8,4.5-8,12.3-5.4,19.2c14.2,38.2,44.1,68.5,82.1,83.2c7.8,3,16.7-0.1,20.8-7.4
		l4.7-8.2c2.3-4,1.1-9.1-2.7-11.7l-14.8-10c-2.6-1.7-5.8-2.4-8.8-1.7c-3.1,0.7-5.7,2.5-7.4,5.2c-0.5,0.8-1,1.5-1.4,2.3
		c-0.6,1-1.6,1.7-2.7,1.9c-1.1,0.3-2.3,0-3.3-0.6c-14.2-9.3-26.4-21.5-35.7-35.7c-1.3-1.9-0.8-4.5,1.1-5.9
		C231.6,229,232.6,228.2,233.7,227.4z"/>
	<path class="st1" d="M311.4,248.5c-2.5,0-4.4-2-4.4-4.4c0-29.2-23.8-53-53-53c-2.4,0-4.4-2-4.4-4.4c0-2.4,2-4.4,4.4-4.4
		c34.1,0,61.8,27.7,61.8,61.8C315.9,246.5,313.9,248.5,311.4,248.5z"/>
	<path class="st1" d="M297.5,248.5c-2.5,0-4.4-2-4.4-4.4c0-21.5-17.5-39.1-39.1-39.1c-2.4,0-4.4-2-4.4-4.4c0-2.4,2-4.4,4.4-4.4
		c26.4,0,47.9,21.5,47.9,47.9C302,246.5,300,248.5,297.5,248.5z"/>
	<path class="st1" d="M283.9,248.5c-2.5,0-4.4-2-4.4-4.4c0-14-11.4-25.4-25.4-25.4c-2.4,0-4.4-2-4.4-4.4c0-2.4,2-4.4,4.4-4.4
		c18.9,0,34.3,15.4,34.3,34.3C288.3,246.5,286.3,248.5,283.9,248.5z"/>
	<path class="st1" d="M366.2,222.1c0-44.4-36-80.5-80.5-80.5h-57c-45.8,0-82.9,37.1-82.9,82.9v35.8c0,35.3,22.1,65.5,53.2,77.4v28.1
		c0,3.3,2.1,6.3,5.2,7.5c0.9,0.3,1.9,0.5,2.8,0.5c2.3,0,4.5-1,6.1-2.8l24.2-27.9h48.4c44.4,0,80.5-36,80.5-80.5L366.2,222.1
		L366.2,222.1z M347.5,262.8c0,34-27.7,61.7-61.7,61.7h-42.9L209.8,363c-0.4,0.5-1.1,0.7-1.8,0.5c-0.6-0.2-1-0.8-1-1.5
		c0-8.2,0-26.6,0-41.2c-24.7-8.9-42.4-32.6-42.4-60.4v-35.8c0-35.4,28.8-64.2,64.2-64.2h57c34,0,61.7,27.7,61.7,61.7L347.5,262.8
		L347.5,262.8z"/>
</g>
</svg>
