<?xml version="1.0"?>
<svg xmlns="http://www.w3.org/2000/svg" height="512px" viewBox="0 0 512 512.002" width="512px"><g><path d="m373.460938 49.0625c-30.722657-31.085938-71.6875-48.503906-115.355469-49.0507812-.496094-.0039063-.992188.0078124-1.488281.0039062-.203126-.0039062-.410157-.015625-.617188-.015625-.21875 0-.4375.015625-.660156.0195312-52.503906.2265628-102.160156 25.7695308-133.226563 68.7148438-2.453125 3.390625-1.691406 8.125 1.699219 10.578125 3.386719 2.453125 8.121094 1.691406 10.574219-1.699219 21.59375-29.855469 53.050781-50.472656 88-58.601562-24.390625 28.480469-42.238281 85.398437-42.238281 146.125 0 67.964843 27.535156 119.261719 35.972656 133.367187 4.269531 7.140625 6.835937 14.824219 7.625 22.835938l3.941406 40.007812h-16.640625l-11.917969-35.917968c-4.839844-14.582032-14.644531-27.488282-27.613281-36.34375-41.074219-28.054688-65.5625-74.457032-65.503906-124.125.019531-20.007813 3.964843-39.453126 11.71875-57.800782 1.628906-3.851562-.175781-8.292968-4.027344-9.921875-3.855469-1.628906-8.296875.171875-9.925781 4.027344-8.542969 20.214844-12.890625 41.636719-12.914063 63.675781-.066406 54.6875 26.890625 105.773438 72.109375 136.652344 10.242188 6.996094 17.976563 17.15625 21.777344 28.609375l13.253906 39.941406v104.871094c0 20.394531 16.59375 36.988281 36.988282 36.988281h42.015624c20.394532 0 36.984376-16.59375 36.984376-36.988281v-104.871094l13.257812-39.945312c3.816406-11.5 11.425781-21.570313 21.425781-28.363281 45.375-30.820313 72.460938-81.921876 72.460938-136.695313.003906-43.746094-16.929688-84.96875-47.675781-116.078125zm-74.613282 327.433594v47.875h-85.691406v-47.875zm0 98.519531c0 12.039063-9.796875 21.835937-21.835937 21.835937h-42.019531c-12.039063 0-21.835938-9.796874-21.835938-21.835937v-35.496094h85.691406zm41.320313-185.714844c-12.742188 8.652344-22.433594 21.484375-27.292969 36.125l-11.921875 35.921875h-16.636719l3.9375-40.007812c.789063-8.011719 3.355469-15.695313 7.628906-22.835938 9.625-16.089844 32.367188-59.96875 35.597657-119.71875.226562-4.175781-2.976563-7.746094-7.152344-7.972656-4.175781-.214844-7.746094 2.976562-7.972656 7.15625-2.117188 39.109375-14.628907 81.261719-33.472657 112.757812-5.355468 8.945313-8.707031 19.019532-9.703124 29.128907l-4.085938 41.492187h-26.1875l-4.082031-41.492187c-.996094-10.109375-4.351563-20.183594-9.703125-29.128907-7.933594-13.261718-33.824219-61.507812-33.824219-125.589843 0-86.488281 35.828125-149.226563 60.265625-149.972657.289062 0 .578125-.003906.867188 0 11.097656.324219 24.316406 13.304688 35.460937 34.875 12.992187 25.144532 21.53125 58.324219 24.042969 93.4375.296875 4.171876 3.921875 7.300782 8.09375 7.011719 4.171875-.296875 7.3125-3.921875 7.015625-8.09375-2.65625-37.113281-11.78125-72.382812-25.695313-99.308593-4.933594-9.554688-10.246094-17.628907-15.800781-24.117188 66.5 15.363281 116.445313 75.347656 116.445313 146.167969 0 49.753906-24.609376 96.167969-65.824219 124.164062zm0 0" data-original="#000000" class="active-path" data-old_color="#54b1f7" fill="#54b1f7"/><path d="m483.515625 376.640625c-5.789063-17.226563-22.125-29.246094-40.691406-29.246094-18.566407 0-34.902344 12.019531-40.6875 29.246094-16.351563 3.835937-28.488281 18.65625-28.488281 35.886719 0 20.324218 16.535156 36.863281 36.859374 36.863281h64.632813c20.324219 0 36.859375-16.535156 36.859375-36.863281 0-17.230469-12.136719-32.054688-28.484375-35.886719zm-8.375 57.601563h-64.628906c-11.972657 0-21.714844-9.742188-21.714844-21.714844 0-11.246094 8.773437-20.746094 19.972656-21.632813 3.375-.265625 6.164063-2.742187 6.828125-6.066406 2.582032-12.914063 14.035156-22.289063 27.226563-22.289063 13.195312 0 24.648437 9.375 27.230469 22.289063.664062 3.324219 3.453124 5.800781 6.828124 6.066406 11.199219.886719 19.972657 10.390625 19.972657 21.632813-.003907 11.972656-9.742188 21.714844-21.714844 21.714844zm0 0" data-original="#000000" class="active-path" data-old_color="#54b1f7" fill="#54b1f7"/><path d="m109.867188 307.96875c-5.789063-17.226562-22.125-29.246094-40.691407-29.246094-18.566406 0-34.902343 12.019532-40.691406 29.246094-16.347656 3.835938-28.484375 18.65625-28.484375 35.890625 0 20.324219 16.535156 36.859375 36.859375 36.859375h64.632813c20.324218 0 36.859374-16.535156 36.859374-36.859375 0-17.234375-12.136718-32.054687-28.484374-35.890625zm-8.375 57.601562h-64.632813c-11.96875 0-21.710937-9.742187-21.710937-21.710937 0-11.246094 8.773437-20.75 19.96875-21.636719 3.378906-.265625 6.167968-2.742187 6.832031-6.0625 2.582031-12.917968 14.035156-22.289062 27.226562-22.289062 13.195313 0 24.644531 9.371094 27.230469 22.289062.664062 3.320313 3.453125 5.796875 6.828125 6.0625 11.199219.886719 19.96875 10.390625 19.96875 21.636719 0 11.96875-9.738281 21.710937-21.710937 21.710937zm0 0" data-original="#000000" class="active-path" data-old_color="#54b1f7" fill="#54b1f7"/></g> </svg>
