<?xml version="1.0"?>
<svg xmlns="http://www.w3.org/2000/svg" xmlns:xlink="http://www.w3.org/1999/xlink" version="1.1" id="Layer_1" x="0px" y="0px" viewBox="0 0 504.999 504.999" style="enable-background:new 0 0 504.999 504.999;" xml:space="preserve" width="512px" height="512px" class=""><g><g>
	<path d="M430.417,52.706h-73.91c-18.049,0-32.732,14.684-32.732,32.733v73.91c0,18.049,14.684,32.733,32.732,32.733h29.451v19.4   c0,4.142,3.357,7.5,7.5,7.5s7.5-3.358,7.5-7.5v-19.4h29.459c18.049,0,32.732-14.684,32.732-32.733v-73.91   C463.149,67.39,448.466,52.706,430.417,52.706z M448.149,159.348c0,9.778-7.955,17.733-17.732,17.733h-36.92   c-0.013,0-0.025-0.002-0.039-0.002s-0.026,0.002-0.039,0.002h-36.913c-9.777,0-17.732-7.955-17.732-17.733v-73.91   c0-9.778,7.955-17.733,17.732-17.733h73.91c9.777,0,17.732,7.955,17.732,17.733V159.348z" data-original="#000000" class="active-path" data-old_color="#54b1f7" fill="#54b1f7"/>
	<path d="M421.327,89.332h-55.73c-9.25,0-16.775,7.525-16.775,16.775v31.774c0,4.142,3.357,7.5,7.5,7.5s7.5-3.358,7.5-7.5v-14.654   h9.675c4.143,0,7.5-3.358,7.5-7.5s-3.357-7.5-7.5-7.5h-9.675v-2.121c0-0.979,0.797-1.775,1.775-1.775h55.73   c0.979,0,1.774,0.796,1.774,1.775v31.774c0,4.142,3.357,7.5,7.5,7.5s7.5-3.358,7.5-7.5v-31.774   C438.102,96.857,430.576,89.332,421.327,89.332z" data-original="#000000" class="active-path" data-old_color="#54b1f7" fill="#54b1f7"/>
	<path d="M384.022,135.678c-3.371-2.246-7.857-2.204-11.204,0.07c-3.464,2.354-5.077,6.792-3.996,10.826   c1.099,4.099,4.767,7.098,8.997,7.391c4.218,0.292,8.283-2.258,9.893-6.157C389.501,143.478,387.961,138.26,384.022,135.678z" data-original="#000000" class="active-path" data-old_color="#54b1f7" fill="#54b1f7"/>
	<path d="M417.683,140.159c-1.577-3.785-5.403-6.259-9.502-6.158c-4.193,0.102-7.969,2.94-9.248,6.931   c-1.276,3.984,0.108,8.438,3.431,10.988c3.386,2.6,8.175,2.724,11.705,0.338C417.954,149.631,419.455,144.482,417.683,140.159z" data-original="#000000" class="active-path" data-old_color="#54b1f7" fill="#54b1f7"/>
	<path d="M399.522,117.188c0.575-3.071-0.795-6.289-3.502-7.895c-2.735-1.623-6.306-1.34-8.727,0.734   c-5.112,4.379-2.031,13.025,4.686,13.197C395.604,123.317,398.79,120.719,399.522,117.188z" data-original="#000000" class="active-path" data-old_color="#54b1f7" fill="#54b1f7"/>
	<path d="M416.333,109.488c-2.77-1.824-6.509-1.622-9.036,0.539c-2.245,1.92-3.164,5.05-2.303,7.878   c0.931,3.057,3.787,5.237,6.985,5.319c3.266,0.084,6.28-2.046,7.305-5.144C420.337,114.898,419.084,111.368,416.333,109.488z" data-original="#000000" class="active-path" data-old_color="#54b1f7" fill="#54b1f7"/>
	<path d="M165.848,80.047c-4.143,0-7.5,3.358-7.5,7.5v9.857c0,4.142,3.357,7.5,7.5,7.5s7.5-3.358,7.5-7.5v-9.857   C173.348,83.405,169.99,80.047,165.848,80.047z" data-original="#000000" class="active-path" data-old_color="#54b1f7" fill="#54b1f7"/>
	<path d="M134.849,80.047c-4.143,0-7.5,3.358-7.5,7.5v9.857c0,4.142,3.357,7.5,7.5,7.5s7.5-3.358,7.5-7.5v-9.857   C142.349,83.405,138.991,80.047,134.849,80.047z" data-original="#000000" class="active-path" data-old_color="#54b1f7" fill="#54b1f7"/>
	<path d="M81.889,136.04h33.106c9.637,7.772,21.878,12.439,35.194,12.439c13.314,0,25.554-4.667,35.19-12.439h33.103   c4.143,0,7.5-3.358,7.5-7.5V75.792C225.982,34,191.981,0,150.181,0c-41.792,0-75.792,34-75.792,75.792v52.747   C74.389,132.682,77.746,136.04,81.889,136.04z M109.023,92.312l-0.001-19.099h82.325v19.099c0,22.699-18.464,41.167-41.158,41.167   C127.49,133.479,109.023,115.012,109.023,92.312z M89.389,75.792C89.389,42.271,116.66,15,150.19,15   c33.521,0,60.792,27.271,60.792,60.792v45.247h-12.561c5.027-8.411,7.926-18.235,7.926-28.727V65.715   c0-4.141-3.356-7.499-7.497-7.5v-0.001l-97.327,0.001c-4.143,0-7.5,3.358-7.5,7.5v26.598c0,10.492,2.899,20.316,7.927,28.727   H89.389V75.792z" data-original="#000000" class="active-path" data-old_color="#54b1f7" fill="#54b1f7"/>
	<path d="M429.422,489.999h-28.464V241.483c0-4.142-3.357-7.5-7.5-7.5s-7.5,3.358-7.5,7.5v248.516h-32.901V467.93h14.681   c4.143,0,7.5-3.358,7.5-7.5s-3.357-7.5-7.5-7.5h-14.681v-14.973h7.577c4.143,0,7.5-3.358,7.5-7.5s-3.357-7.5-7.5-7.5h-7.577v-7.097   h7.577c4.143,0,7.5-3.358,7.5-7.5s-3.357-7.5-7.5-7.5h-7.577v-1.042c0-4.142-3.357-7.5-7.5-7.5s-7.5,3.358-7.5,7.5v1.042h-76.784   v-1.042c0-4.142-3.357-7.5-7.5-7.5s-7.5,3.358-7.5,7.5v1.042h-8.138c-4.143,0-7.5,3.358-7.5,7.5s3.357,7.5,7.5,7.5h8.138v7.097   h-8.138c-4.143,0-7.5,3.358-7.5,7.5s3.357,7.5,7.5,7.5h8.138v14.973h-15.241c-4.143,0-7.5,3.358-7.5,7.5s3.357,7.5,7.5,7.5h15.241   v22.069h-52.281c4.313-28.193,5.896-76.094,6.361-94.46h25.827c3.904,0,7.155-2.995,7.475-6.886   c3.107-37.802-2.442-73.208-7.645-96.253c-2.942-13.034-6.091-23.594-8.213-30.158c-1.656-5.118-2.732-8.193-3.492-10.115   c-0.072-22.621-1.822-40.77-4.196-55.023c5.02,8.009,10.142,18.408,14.692,31.08c10.942,30.475,15.063,64.382,11.602,95.475   c-0.458,4.117,2.508,7.825,6.624,8.284c0.282,0.031,0.563,0.046,0.839,0.046c3.771,0,7.019-2.836,7.445-6.671   c3.709-33.321-0.691-69.617-12.392-102.203c-9.665-26.917-23.358-48.099-36.255-56.347c-3.083-8.835-5.641-12.984-5.911-13.409   c-1.376-2.167-3.765-3.48-6.332-3.48H169.9c-2.466,0-4.773,1.212-6.174,3.241l-4.512,6.541c-2.04,2.958-5.271,4.654-8.864,4.654   s-6.824-1.696-8.864-4.654l-4.512-6.541c-1.4-2.029-3.708-3.241-6.174-3.241H110.28c-2.567,0-4.956,1.313-6.332,3.48   c-0.27,0.425-2.827,4.572-5.91,13.405c-12.899,8.246-26.595,29.43-36.261,56.351c-11.7,32.585-16.101,68.882-12.392,102.203   c0.427,3.835,3.674,6.671,7.445,6.671c0.276,0,0.557-0.015,0.839-0.046c4.116-0.458,7.082-4.167,6.624-8.284   c-3.461-31.093,0.659-65,11.602-95.475c4.552-12.677,9.676-23.078,14.698-31.089c-2.375,14.262-4.127,32.424-4.198,55.066   c-1.257,3.332-4.569,12.527-8.182,25.969c-1.075,4,1.297,8.115,5.297,9.19c4.002,1.076,8.114-1.296,9.189-5.296   c2.65-9.863,5.15-17.368,6.667-21.645c39.276-5.365,62.678-5.366,101.956-0.001c5.016,14.232,20.881,64.287,17.85,120.161H81.523   c-1.257-22.962,0.503-47.32,5.247-72.518c0.767-4.071-1.912-7.992-5.982-8.758c-4.063-0.766-7.991,1.912-8.758,5.983   c-5.47,29.052-7.147,57.114-4.985,83.408c0.319,3.891,3.57,6.885,7.475,6.885h25.832c0.465,18.366,2.046,66.269,6.353,94.46H49.35   c-4.143,0-7.5,3.358-7.5,7.5s3.357,7.5,7.5,7.5h380.072c4.143,0,7.5-3.358,7.5-7.5S433.564,489.999,429.422,489.999z    M101.481,244.966c0.959-47.174,9.645-71.637,13.407-80.087h11.975l2.275,3.299c4.811,6.973,12.74,11.136,21.212,11.136   s16.401-4.163,21.212-11.136l2.275-3.299h11.97c3.784,8.496,12.453,32.959,13.411,80.088   C162.553,240.192,138.146,240.191,101.481,244.966z M261.272,415.86h76.784v7.097h-76.784V415.86z M261.272,437.957h76.784v14.973   h-76.784V437.957z M261.272,467.93h76.784v22.069h-76.784V467.93z M121.887,489.999c-4.354-26.177-6.026-75.553-6.524-94.46h21.002   c-6.127,44.246-8.489,79.806-9.273,94.46H121.887z M150.346,404.054c5.312,39.988,7.468,71.904,8.235,85.945h-16.469   C142.879,475.958,145.035,444.043,150.346,404.054z M173.602,489.999c-0.785-14.655-3.147-50.215-9.274-94.46h21.012   c-0.498,18.907-2.172,68.284-6.533,94.46H173.602z" data-original="#000000" class="active-path" data-old_color="#54b1f7" fill="#54b1f7"/>
</g></g> </svg>
