<?xml version="1.0" encoding="utf-8"?>
<!-- Generator: Adobe Illustrator 21.1.0, SVG Export Plug-In . SVG Version: 6.00 Build 0)  -->
<svg version="1.1" id="Layer_1" xmlns="http://www.w3.org/2000/svg" xmlns:xlink="http://www.w3.org/1999/xlink" x="0px" y="0px"
	 viewBox="0 0 512 512" style="enable-background:new 0 0 512 512;" xml:space="preserve">
<style type="text/css">
	.st0{fill:#54B1F7;stroke:#54B1F7;stroke-width:3;stroke-miterlimit:10;}
</style>
<g>
	<path class="st0" d="M399.8,336.6h24.4c4.2,0,7.6-3.4,7.6-7.6s-3.4-7.6-7.6-7.6h-24.4c-4.2,0-7.6,3.4-7.6,7.6
		C392.2,333.1,395.6,336.6,399.8,336.6z"/>
	<path class="st0" d="M504.4,215h-48.1v-29.6l0,0v-37l0,0v-9.3c0-21-17.1-38.2-38.1-38.2H282.4V33.3c0-18.4-15-33.3-33.4-33.3H81.4
		C63.1,0,48.1,14.9,48.1,33.3v125.6c-12.4,0.9-24,6.1-32.9,15C5.4,183.7,0,196.7,0,210.4v0.1v249.7C0,488.8,23.2,512,51.8,512h192.1
		c4.2,0,7.6-3.4,7.6-7.6s-3.4-7.6-7.6-7.6H51.8c-20.2,0-36.5-16.4-36.5-36.5v-213c9.4,9.3,22.3,15.1,36.5,15.1h287.5
		c16.4,0,29.8,13.4,29.8,29.8v111.1l0,0l0,0v31.9l0,0l0,0v31.7c0,16.4-13.4,29.8-29.8,29.8h-30.1c-4.2,0-7.6,3.4-7.6,7.6
		s3.4,7.6,7.6,7.6h30.1c24.8,0,45.1-20.2,45.1-45.1v-24.1h120c4.2,0,7.6-3.4,7.6-7.6V222.6C512,218.4,508.6,215,504.4,215z
		 M182.7,215v-22H441v22H182.7z M441,139.1v1.7h-33.4c-4.2,0-7.6,3.4-7.6,7.6c0,4.2,3.4,7.6,7.6,7.6H441v21.8H182.7V156h159.6
		c4.2,0,7.6-3.4,7.6-7.6c0-4.2-3.4-7.6-7.6-7.6H182.7v-4.1c0-11.3,9.2-20.6,20.6-20.6h214.9C430.8,116.2,441,126.4,441,139.1z
		 M63.3,33.3c0-10,8.1-18.1,18.1-18.1H249c10,0,18.1,8.1,18.1,18.1v67.6h-6.2V65.5c0-11.3-9.2-20.6-20.6-20.6H90.1
		c-11.3,0-20.6,9.2-20.6,20.6v27.1c0,4.2,3.4,7.6,7.6,7.6s7.6-3.4,7.6-7.6V65.5c0-2.9,2.4-5.3,5.4-5.3h150.3c3,0,5.4,2.4,5.4,5.3
		v35.4h-42.5c-19.7,0-35.8,16.1-35.8,35.8V215h-32.6c-4.2,0-7.6,3.4-7.6,7.6v24.5H84.8v-99.8c0-4.2-3.4-7.6-7.6-7.6
		s-7.6,3.4-7.6,7.6v99.8h-6.2L63.3,33.3L63.3,33.3z M15.2,210.6c0-9.8,3.8-18.9,10.7-25.8c6-6,13.8-9.7,22.2-10.5V247
		C29.7,245.1,15.2,229.5,15.2,210.6z M372.9,262.2h53.2c3.2,19.8,18.9,35.4,38.7,38.7V357c-19.8,3.2-35.4,18.9-38.7,38.7h-41.8
		V292.2C384.4,280.7,380,270.2,372.9,262.2z M496.8,427.6H384.4v-16.7h48.7c4.2,0,7.6-3.4,7.6-7.6c0-17.5,14.2-31.7,31.7-31.7
		c4.2,0,7.6-3.4,7.6-7.6v-70.1c0-4.2-3.4-7.6-7.6-7.6c-17.5,0-31.7-14.2-31.7-31.7c0-4.2-3.4-7.6-7.6-7.6l-290.6,0.1v-16.9h354.3
		V427.6z"/>
	<path class="st0" d="M465.4,257.5c1.1,2.7,3.8,4.6,6.7,4.7c3.2,0.1,6.3-1.9,7.4-4.9c1.2-3.1,0.2-6.7-2.4-8.7
		c-2.5-1.9-6-2.1-8.7-0.4C465.3,250.1,464,254.1,465.4,257.5z"/>
	<path class="st0" d="M479.4,400.4c-1.2-2.9-4.2-4.9-7.4-4.7c-3.1,0.2-5.9,2.3-6.8,5.2c-2.2,6.7,5.6,12.7,11.4,8.7
		C479.7,407.6,480.8,403.7,479.4,400.4z"/>
	<path class="st0" d="M341.7,377.6c0-20.2-16.4-36.5-36.5-36.5s-36.5,16.4-36.5,36.5s16.4,36.5,36.5,36.5S341.7,397.7,341.7,377.6z
		 M283.9,377.6c0-11.8,9.6-21.3,21.3-21.3c11.8,0,21.3,9.6,21.3,21.3c0,11.8-9.6,21.3-21.3,21.3
		C293.4,398.9,283.9,389.3,283.9,377.6z"/>
</g>
</svg>
