<?xml version="1.0"?>
<svg xmlns="http://www.w3.org/2000/svg" height="512px" viewBox="-46 0 511 511.997" width="512px"><g><path d="m387.554688 300.554688-12.027344-3.695313c-.285156-.089844-.574219-.160156-.859375-.242187v-16.714844c0-16.796875-13.667969-30.460938-30.464844-30.460938h-3.023437c9.890624-9.167968 18.074218-19.5 24.421874-30.902344 3.242188-5.824218 5.976563-11.882812 8.207032-18.152343 25.328125-2.320313 45.136718-21.050781 45.136718-43.738281 0-22.503907-19.5625-41.152344-44.636718-43.675782-3.964844-12.511718-9.609375-24.566406-16.886719-35.839844-2.25-3.480468-6.890625-4.480468-10.371094-2.234374-3.476562 2.246093-4.476562 6.890624-2.230469 10.371093 7.699219 11.925781 13.382813 24.8125 16.933594 38.195313-22.652344-7.53125-48.859375-26.027344-63.753906-45.84375-1.863281-2.480469-5.0625-3.558594-8.046875-2.707032-2.984375.847657-5.136719 3.449219-5.417969 6.539063-.644531 7.152344-2.414062 13.5-5.402344 19.328125-19.960937-5.839844-56.480468-30.113281-62.519531-44.167969-1.183593-2.753906-3.894531-4.539062-6.890625-4.539062-3 0-5.707031 1.785156-6.890625 4.539062-6.039062 14.054688-42.5625 38.332031-62.519531 44.167969-2.988281-5.828125-4.757812-12.175781-5.402344-19.328125-.28125-3.089844-2.433594-5.691406-5.417968-6.539063-2.984376-.851562-6.183594.226563-8.046876 2.707032-14.898437 19.816406-41.105468 38.316406-63.761718 45.84375 16.535156-62.148438 78.421875-108.464844 152.039062-108.464844 43.519532 0 83.9375 15.808594 113.8125 44.515625 2.988282 2.871094 7.734375 2.777344 10.605469-.210937 2.867187-2.984376 2.773437-7.734376-.214844-10.601563-32.679687-31.40625-76.789062-48.703125-124.203125-48.703125-77.921875 0-143.855468 47.78125-164.597656 112.972656-25.070312 2.527344-44.625 21.175782-44.625 43.675782 0 22.703124 19.835938 41.445312 45.191406 43.742187 8.003906 22.476563 22.414063 42.015625 42.5625 57.457031-8.042968 4.023438-14.542968 11.117188-17.566406 20.308594-12.03125 36.570312-3.554688 72.277344 22.121094 93.195312 8.871094 7.230469 19.226562 12.117188 30.503906 14.46875 2.238281 3.015626 4.648438 5.875 7.199219 8.582032v27.773437c0 4.144531 3.359375 7.5 7.5 7.5s7.5-3.355469 7.5-7.5v-14.765625c11.636719 8.175782 25.144531 13.914063 39.867187 16.917969v34.320313h-39.867187v-2.328126c0-4.140624-3.359375-7.5-7.5-7.5s-7.5 3.359376-7.5 7.5v20.742188c0 19.261719 15.671875 34.933594 34.933593 34.933594 19.261719 0 34.933594-15.671875 34.933594-34.933594v-50.667969c3.078125.230469 6.191406.351563 9.34375.351563 3.148438 0 6.261719-.117188 9.347656-.351563v50.667969c0 19.261719 15.667969 34.933594 34.929688 34.933594s34.933594-15.671875 34.933594-34.933594v-82.667969c.949218-1.007812 1.878906-2.035156 2.785156-3.082031h52.488281c14.09375 0 25.980469-9.625 29.441407-22.648438 1.214843.128907 2.4375.21875 3.660156.21875 15.433594 0 28.847656-9.917968 33.382812-24.683593 2.742188-8.917969 1.84375-18.371094-2.527344-26.613281-4.371093-8.242188-11.6875-14.292969-20.609374-17.03125zm-8.410157-167.433594c-.035156-.441406-.105469-.875-.214843-1.292969-.175782-1.003906-.363282-2.003906-.5625-3 14.75 3.507813 25.578124 14.664063 25.578124 27.820313 0 13.210937-10.871093 24.375-25.679687 27.855468 1.882813-8.9375 2.839844-18.234375 2.839844-27.855468-.003907-7.90625-.679688-15.769532-1.960938-23.527344zm-363.644531 23.527344c0-13.148438 10.8125-24.296876 25.546875-27.8125-.203125 1.03125-.390625 2.074218-.570313 3.117187-.0625.265625-.109374.53125-.144531.804687-1.3125 7.789063-1.992187 15.769532-1.992187 23.890626 0 9.625.980468 18.929687 2.871094 27.863281-14.824219-3.46875-25.710938-14.644531-25.710938-27.863281zm169.875 320.417968c0 10.992188-8.941406 19.933594-19.929688 19.933594-10.992187 0-19.933593-8.941406-19.933593-19.933594v-3.417968h39.863281zm-116.316406-262.210937c-10.429688-17.097657-15.71875-36.683594-15.71875-58.207031 0-5.636719.375-11.195313 1.085937-16.660157 22.90625-5.503906 49.726563-21.828125 68.742188-41.421875 1.363281 4.132813 3.132812 8.070313 5.324219 11.859375 2.597656 4.507813 7.71875 6.761719 12.746093 5.609375 18.316407-4.199218 52.609375-24.382812 68.480469-43.003906 15.871094 18.625 50.167969 38.804688 68.484375 43.003906 5.023437 1.152344 10.148437-1.101562 12.746094-5.605468 2.1875-3.792969 3.960937-7.730469 5.324219-11.859376 19.011718 19.585938 45.824218 35.90625 68.722656 41.414063.71875 5.511719 1.105468 11.078125 1.105468 16.664063 0 35.699218-14.496093 65.832031-42.058593 87.765624v-37.824218c0-.257813-.011719-.515625-.039063-.769532-.410156-10.929687-9.402344-19.699218-20.429687-19.699218h-74.542969c-11.027344 0-20.023438 8.769531-20.429688 19.699218-.027343.253907-.039062.511719-.039062.769532v42.851562h-20.15625c-14.691406 0-26.984375 10.449219-29.839844 24.300782-10.859375-2.546876-21.171875-5.929688-30.765625-10.101563-3.609375-3.40625-8-6.097656-13.015625-7.746094-1.445312-.476562-2.894531-.839843-4.347656-1.117187-17.738281-10.578125-31.664062-23.996094-41.378906-39.921875zm234.515625 5.535156h-74.539063c-3.015625 0-5.46875-2.453125-5.46875-5.46875v-8.332031c0-3.015625 2.453125-5.472656 5.46875-5.472656h74.539063c3.019531 0 5.472656 2.457031 5.472656 5.472656v8.332031c0 3.015625-2.457031 5.46875-5.472656 5.46875zm5.472656 14.234375v14.8125h-85.480469v-14.8125c1.742188.484375 3.570313.765625 5.46875.765625h74.539063c1.898437 0 3.726562-.28125 5.472656-.765625zm-170.679687 49.03125c6.328124 2.066406 12.859374 3.859375 19.578124 5.34375v22.039062c-.410156.214844-.816406.429688-1.21875.660157-11.601562 6.660156-18.664062 6.347656-19.78125 5.496093-1.148437-1.015624-3.253906-6.980468.109376-17.203124 1.789062-5.445313 2.152343-11.023438 1.3125-16.335938zm25.832031 41.050781c1.144531-.660156 2.335937-1.195312 3.5625-1.609375.011719-.003906.019531-.011718.03125-.011718 3.699219-1.246094 7.679687-1.375 11.535156-.335938 5.140625 1.390625 9.429687 4.699219 12.082031 9.316406 2.648438 4.617188 3.34375 9.988282 1.957032 15.128906-1.390626 5.140626-4.699219 9.429688-9.316407 12.082032-5.25 3.011718-10.554687 5.519531-15.847656 7.519531l-14.492187-37.105469c3.371093-1.261718 6.882812-2.914062 10.488281-4.984375zm-24.917969 47.738281c-13.988281 0-26.785156-4.398437-37-12.722656-20.742188-16.898437-27.386719-46.355468-17.347656-76.875 2.757812-8.382812 10.574218-13.707031 18.953125-13.707031.964843 0 1.9375.078125 2.910156.222656.007813 0 .019531.003907.027344.003907 1.09375.164062 2.1875.417968 3.273437.773437 10.441406 3.433594 16.140625 14.722656 12.707032 25.164063-4.683594 14.234374-2.855469 27.390624 4.65625 33.511718 2.945312 2.398438 6.792968 3.636719 11.277343 3.761719l14.992188 38.390625c-4.90625.972656-9.742188 1.476562-14.449219 1.476562zm86.695312 38.121094c-.324218.023438-.644531.066406-.957031.132813-4.953125.691406-10.058593 1.050781-15.296875 1.050781-25.710937 0-48.667968-8.769531-65.167968-24.484375 6.914062-.4375 13.980468-1.707031 21.078124-3.792969.277344-.070312.558594-.15625.835938-.257812.320312-.097656.640625-.195313.960938-.296875 5.617187 5.328125 13.125 8.394531 20.976562 8.394531h81.96875c-12.265625 10.144531-27.40625 16.714844-44.398438 19.253906zm47.957032 66.5c0 10.992188-8.941406 19.933594-19.933594 19.933594s-19.933594-8.941406-19.933594-19.933594v-3.417968h39.863282v3.417968zm0-18.417968h-39.867188v-34.351563c14.671875-3.027344 28.207032-8.792969 39.867188-16.957031zm70.269531-82.335938h-155.796875c-1.222656 0-2.429688-.148438-3.601562-.429688 2.25-1.121093 4.492187-2.320312 6.71875-3.597656 8.089843-4.648437 13.886718-12.167968 16.324218-21.175781 2.433594-9.007813 1.21875-18.425781-3.429687-26.515625-4.644531-8.089844-12.167969-13.890625-21.175781-16.324219-3.40625-.921875-6.867188-1.316406-10.296876-1.207031v-24.261719c0-.011719 0-.019531 0-.027343v-2.871094c0-8.527344 6.9375-15.464844 15.464844-15.464844h131.207032c.007812 0 .011718.003906.015624.003906.003907 0 .011719-.003906.015626-.003906h24.554687c8.527344 0 15.464844 6.9375 15.464844 15.464844v15.863281c-3.710938.605469-7.339844 1.8125-10.757813 3.625-8.242187 4.371094-14.292968 11.6875-17.03125 20.609375-2.738281 8.917969-1.839844 18.371094 2.53125 26.617188 4.371094 8.242187 11.6875 14.292968 20.609375 17.03125l4.089844 1.253906c-1.789063 6.566406-7.785156 11.410156-14.90625 11.410156zm52.148437-36.511719c-2.589843 8.425781-10.242187 14.085938-19.042968 14.085938-1.976563 0-3.949219-.296875-5.863282-.886719l-2.007812-.613281c-.03125-.011719-.058594-.019531-.089844-.027344l-9.925781-3.050781c-5.089844-1.5625-9.265625-5.015625-11.757813-9.71875-2.496093-4.703125-3.007812-10.097656-1.445312-15.1875s5.015625-9.265625 9.71875-11.761719c2.917969-1.546875 6.101562-2.332031 9.3125-2.332031 1.964844 0 3.941406.296875 5.875.890625l12.027344 3.691406c5.089844 1.566406 9.265625 5.015625 11.757812 9.722656 2.492188 4.703125 3.003906 10.097657 1.441406 15.1875zm-107.894531-171.652343c4.144531 0 7.5-3.359376 7.5-7.5v-13.070313c0-4.140625-3.355469-7.5-7.5-7.5-4.140625 0-7.5 3.359375-7.5 7.5v13.070313c0 4.140624 3.359375 7.5 7.5 7.5zm-78.734375 10.035156c10.121094 0 19.75-4.382813 26.410156-12.027344 2.722657-3.125 2.398438-7.859375-.726562-10.582031-3.121094-2.722657-7.859375-2.394531-10.582031.726562-3.8125 4.375-9.316407 6.886719-15.101563 6.886719-5.789062 0-11.292968-2.511719-15.105468-6.886719-2.722657-3.121093-7.460938-3.445312-10.582032-.726562-3.121094 2.722656-3.449218 7.460937-.726562 10.582031 6.660156 7.644531 16.289062 12.027344 26.414062 12.027344zm56.582032 127.875c-7.90625 0-14.316407 6.410156-14.316407 14.316406s6.410157 14.316406 14.316407 14.316406 14.316406-6.410156 14.316406-14.316406-6.410156-14.316406-14.316406-14.316406zm-135.320313-137.910156c4.140625 0 7.5-3.359376 7.5-7.5v-13.070313c0-4.140625-3.359375-7.5-7.5-7.5-4.144531 0-7.5 3.359375-7.5 7.5v13.070313c0 4.140624 3.355469 7.5 7.5 7.5zm73.859375 113.425781h-13.492188c-4.144531 0-7.5 3.359375-7.5 7.5 0 4.144531 3.355469 7.5 7.5 7.5h13.492188c4.144531 0 7.5-3.355469 7.5-7.5 0-4.140625-3.355469-7.5-7.5-7.5zm61.460938-8.027344c-25.820313 0-46.828126 21.007813-46.828126 46.832031 0 25.820313 21.007813 46.828125 46.828126 46.828125 25.820312 0 46.828124-21.007812 46.828124-46.828125 0-25.824218-21.007812-46.832031-46.828124-46.832031zm0 78.660156c-17.550782 0-31.828126-14.277343-31.828126-31.828125 0-17.554687 14.277344-31.832031 31.828126-31.832031 17.550781 0 31.828124 14.277344 31.828124 31.832031 0 17.550782-14.277343 31.828125-31.828124 31.828125zm0 0" data-original="#000000" class="active-path" data-old_color="#54b1f7" fill="#54b1f7"/></g> </svg>
