<?xml version="1.0"?>
<svg xmlns="http://www.w3.org/2000/svg" height="512px" viewBox="-38 0 512 512.001" width="512px" class=""><g><path d="m218.242188 512c-2.4375 0-4.875-.886719-6.792969-2.660156l-146.867188-135.878906c-.097656-.085938-.191406-.175782-.28125-.269532-41.464843-41.457031-64.300781-96.308594-64.300781-154.449218 0-58.136719 22.835938-112.988282 64.300781-154.449219 40.730469-41.253907 95.210938-64.105469 153.363281-64.292969h.726563c58.398437 0 113.359375 22.816406 154.839844 64.292969.015625.015625.03125.03125.046875.046875 40.984375 41.511718 63.480468 96.542968 63.335937 154.953125-.144531 58.519531-23.023437 113.546875-64.429687 154.949219-.101563.101562-.203125.199218-.308594.292968l-146.871094 134.832032c-1.914062 1.757812-4.339844 2.632812-6.761718 2.632812zm-139.9375-153.085938 139.960937 129.488282 139.925781-128.453125c77.300782-77.445313 77.699219-203.691407.875-281.539063-37.699218-37.679687-87.636718-58.410156-140.679687-58.410156-.222657 0-.4375.003906-.65625.003906-52.785157.167969-102.238281 20.90625-139.242188 58.386719-37.734375 37.726563-58.488281 87.558594-58.488281 140.351563 0 52.734374 20.707031 102.507812 58.304688 140.171874zm0 0" data-original="#000000" class="active-path" data-old_color="#54b1f7" fill="#54b1f7"/><path d="m325.496094 128.171875c-.648438 0-1.308594-.0625-1.949219-.191406-.640625-.128907-1.269531-.320313-1.871094-.570313-.609375-.25-1.1875-.558594-1.726562-.917968-.550781-.371094-1.0625-.792969-1.523438-1.25-1.859375-1.859376-2.929687-4.429688-2.929687-7.070313 0-.652344.070312-1.300781.199218-1.949219.132813-.640625.320313-1.273437.570313-1.871094.25-.601562.5625-1.191406.921875-1.730468.359375-.550782.777344-1.058594 1.238281-1.519532.460938-.460937.972657-.878906 1.519531-1.242187.542969-.359375 1.121094-.667969 1.730469-.917969.601563-.25 1.230469-.441406 1.871094-.570312 1.289063-.261719 2.617187-.261719 3.910156 0 .628907.128906 1.257813.320312 1.867188.570312.601562.25 1.183593.558594 1.722656.917969.550781.363281 1.058594.78125 1.519531 1.242187.46875.460938.878906.96875 1.25 1.519532.359375.539062.671875 1.128906.921875 1.730468.25.597657.4375 1.230469.566407 1.871094.132812.636719.191406 1.296875.191406 1.949219 0 2.640625-1.0625 5.210937-2.929688 7.070313-.460937.457031-.972656.878906-1.519531 1.25-.542969.359374-1.121094.667968-1.722656.917968-.609375.25-1.238281.441406-1.871094.570313-.648437.128906-1.304687.191406-1.957031.191406zm0 0" data-original="#000000" class="active-path" data-old_color="#54b1f7" fill="#54b1f7"/><path d="m218.304688 377.859375c-87.039063 0-157.851563-70.804687-157.851563-157.835937s70.8125-157.835938 157.851563-157.835938c28.433593 0 56.3125 7.644531 80.617187 22.109375 4.746094 2.820313 6.304687 8.960937 3.480469 13.707031-2.824219 4.746094-8.960938 6.304688-13.707032 3.476563-21.214843-12.621094-45.554687-19.292969-70.390624-19.292969-76.011719 0-137.851563 61.832031-137.851563 137.835938 0 76.003906 61.839844 137.835937 137.851563 137.835937 76.015624 0 137.855468-61.832031 137.855468-137.835937 0-22.410157-5.5-44.65625-15.898437-64.324219-2.582031-4.882813-.71875-10.933594 4.164062-13.515625 4.882813-2.582032 10.933594-.714844 13.515625 4.167968 11.917969 22.539063 18.21875 48.015626 18.21875 73.671876 0 87.03125-70.8125 157.835937-157.855468 157.835937zm0 0" data-original="#000000" class="active-path" data-old_color="#54b1f7" fill="#54b1f7"/><path d="m268.121094 306.671875c-1.125 0-2.257813-.191406-3.351563-.578125l-46.464843-16.523438-46.460938 16.523438c-3.109375 1.101562-6.558594.605469-9.230469-1.332031-2.667969-1.941407-4.207031-5.070313-4.117187-8.367188l1.355468-49.289062-30.070312-39.078125c-2.011719-2.613282-2.605469-6.050782-1.585938-9.1875 1.019532-3.136719 3.519532-5.570313 6.683594-6.5l47.300782-13.945313 27.878906-40.671875c1.863281-2.71875 4.949218-4.34375 8.246094-4.34375 3.300781 0 6.386718 1.625 8.25 4.34375l27.878906 40.671875 47.300781 13.945313c3.164063.929687 5.664063 3.363281 6.683594 6.5 1.019531 3.136718.425781 6.574218-1.585938 9.1875l-30.070312 39.078125 1.355469 49.289062c.089843 3.296875-1.449219 6.425781-4.117188 8.367188-1.734375 1.257812-3.796875 1.910156-5.878906 1.910156zm-49.816406-37.710937c1.136718 0 2.269531.191406 3.351562.574218l36.066406 12.824219-1.050781-38.257813c-.066406-2.296874.667969-4.550781 2.070313-6.371093l23.339843-30.335938-36.714843-10.820312c-2.207032-.648438-4.121094-2.042969-5.421876-3.9375l-21.640624-31.574219-21.640626 31.574219c-1.296874 1.894531-3.214843 3.289062-5.417968 3.9375l-36.714844 10.820312 23.339844 30.335938c1.402344 1.820312 2.132812 4.074219 2.070312 6.371093l-1.054687 38.257813 36.066406-12.824219c1.085937-.382812 2.21875-.574218 3.351563-.574218zm0 0" data-original="#000000" class="active-path" data-old_color="#54b1f7" fill="#54b1f7"/></g> </svg>
