<?xml version="1.0"?>
<svg xmlns="http://www.w3.org/2000/svg" xmlns:xlink="http://www.w3.org/1999/xlink" version="1.1" id="Capa_1" x="0px" y="0px" viewBox="0 0 512.006 512.006" style="enable-background:new 0 0 512.006 512.006;" xml:space="preserve" width="512px" height="512px"><g><g>
	<g>
		<g>
			<path d="M507.375,451.92l-42.667-21.973c-2.71-1.396-5.96-1.241-8.524,0.408c-2.564,1.649-4.054,4.541-3.908,7.586     s1.905,5.781,4.616,7.178l42.667,21.982c4.192,2.159,9.34,0.51,11.499-3.682C513.216,459.226,511.567,454.078,507.375,451.92z" data-original="#000000" class="active-path" data-old_color="#54b1f7" fill="#54b1f7"/>
			<path d="M290.133,196.27c2.263,0,4.433-0.9,6.033-2.5L394.3,95.636c3.234-3.348,3.188-8.671-0.104-11.962     c-3.292-3.292-8.614-3.338-11.962-0.104L284.1,181.703c-2.44,2.44-3.169,6.11-1.849,9.298     C283.572,194.19,286.683,196.269,290.133,196.27z" data-original="#000000" class="active-path" data-old_color="#54b1f7" fill="#54b1f7"/>
			<path d="M322.5,227.903c3.332,3.331,8.734,3.331,12.066,0l98.133-98.133c3.234-3.348,3.188-8.671-0.104-11.962     c-3.292-3.292-8.614-3.338-11.962-0.104L322.5,215.837C319.169,219.169,319.169,224.571,322.5,227.903z" data-original="#000000" class="active-path" data-old_color="#54b1f7" fill="#54b1f7"/>
			<path d="M503.467,494.936H300.681L17.067,353.129V318.45l76.843,21.487c0,0.469-0.043,0.93-0.043,1.399     c0,28.698,14.984,51.2,34.133,51.2c2.392-0.001,4.77-0.357,7.057-1.058l26.129-4.352c2.901-0.486,5.811-0.93,8.721-1.374     c4.267-0.649,8.482-1.297,12.698-2.065c7.859-1.533,14.81-6.073,19.371-12.655l24.747,7.347     c5.883,3.347,12.487,5.223,19.251,5.47c0.239,0.063,0.481,0.114,0.725,0.154c0.094,0,0.171-0.051,0.256-0.051     c0.085,0,0.333,0.051,0.512,0.051h90.795l84.48,43.52c4.19,2.159,9.336,0.512,11.494-3.678c2.158-4.19,0.512-9.336-3.678-11.494     l-55.023-28.348h93.798c23.552-0.028,42.638-19.114,42.667-42.667V42.67c-0.028-23.552-19.114-42.638-42.667-42.667H247.467     c-1.966,0.06-3.925,0.259-5.862,0.597c-1.638-0.622-3.43-0.708-5.12-0.247L6.084,68.62C2.47,69.702-0.004,73.03,0,76.803v281.6     c-0.018,3.25,1.812,6.227,4.719,7.68L294.852,511.15c0.102,0.051,0.222,0.068,0.333,0.119c0.111,0.051,0.316,0.111,0.478,0.171     c0.96,0.366,1.977,0.556,3.004,0.563h204.8c4.713,0,8.533-3.821,8.533-8.533S508.18,494.936,503.467,494.936z M130.27,374.975     l-2.56,0.427c-7.996-0.358-16.777-14.771-16.777-34.065c0-19.541,9.011-34.133,17.067-34.133s17.067,14.592,17.067,34.133     C145.067,359.052,137.66,372.585,130.27,374.975z M179.567,366.936c-4.062,0.734-8.149,1.357-12.237,1.98     c-2.987,0.452-5.973,0.913-8.951,1.408l-2.253,0.375c1.753-3.872,3.109-7.912,4.045-12.058l23.134,6.878     C182.145,366.194,180.882,366.673,179.567,366.936z M315.733,17.07h85.333v25.6h-85.333V17.07z M298.667,17.07v25.6     c0,9.426,7.641,17.067,17.067,17.067h85.333c9.426,0,17.067-7.641,17.067-17.067v-25.6h43.861     c-0.748,1.238-1.16,2.65-1.195,4.096v192.171c0,37.128-21.385,42.667-34.133,42.667H290.133     c-12.749,0-34.133-5.538-34.133-42.667V21.166c-0.035-1.446-0.447-2.858-1.195-4.096H298.667z M221.867,42.67     c0.052-11.016,7.146-20.764,17.613-24.201c-0.329,0.863-0.514,1.774-0.546,2.697v192.171c0,44.041,26.453,59.733,51.2,59.733     h136.533c24.747,0,51.2-15.693,51.2-59.733V21.166c-0.032-0.923-0.217-1.834-0.546-2.697     c10.466,3.437,17.56,13.184,17.613,24.201v298.667c0,14.138-11.461,25.6-25.6,25.6H247.467c-14.138,0-25.6-11.462-25.6-25.6     V42.67z M128,50.35l42.667-12.646v148.753L128,180.312V50.35z M17.067,83.177L76.8,65.479v103.748l-59.733-9.122V83.177z      M17.067,177.36l57.054,8.721c4.903,0.819,9.918-0.567,13.705-3.789c3.844-3.253,6.055-8.037,6.042-13.073v-108.8l17.067-5.06     v124.954c0.04,8.478,6.265,15.657,14.652,16.896l42.761,6.153c0.755,0.102,1.516,0.154,2.278,0.154     c9.426,0,17.067-7.641,17.067-17.067V32.609l20.258-5.973c-2.077,5.091-3.147,10.536-3.149,16.034v298.667     c0.057,4.58,0.861,9.119,2.381,13.44l-45.047-13.389v-0.051c0-28.706-14.993-51.2-34.133-51.2     c-14.763,0-27.025,13.406-31.881,32.7l-79.053-22.11V177.36z" data-original="#000000" class="active-path" data-old_color="#54b1f7" fill="#54b1f7"/>
			<path d="M285.867,349.87c16.495,0,29.867-13.372,29.867-29.867c0-16.495-13.372-29.867-29.867-29.867     c-16.495,0-29.867,13.372-29.867,29.867C256,336.498,269.372,349.87,285.867,349.87z M285.867,307.203     c7.069,0,12.8,5.731,12.8,12.8c0,7.069-5.731,12.8-12.8,12.8c-7.069,0-12.8-5.731-12.8-12.8     C273.067,312.934,278.798,307.203,285.867,307.203z" data-original="#000000" class="active-path" data-old_color="#54b1f7" fill="#54b1f7"/>
			<path d="M430.933,349.87c16.495,0,29.867-13.372,29.867-29.867c0-16.495-13.372-29.867-29.867-29.867     s-29.867,13.372-29.867,29.867C401.067,336.498,414.439,349.87,430.933,349.87z M430.933,307.203c7.069,0,12.8,5.731,12.8,12.8     c0,7.069-5.731,12.8-12.8,12.8c-7.069,0-12.8-5.731-12.8-12.8C418.133,312.934,423.864,307.203,430.933,307.203z" data-original="#000000" class="active-path" data-old_color="#54b1f7" fill="#54b1f7"/>
		</g>
	</g>
</g></g> </svg>
